<svg xmlns="http://www.w3.org/2000/svg" width="2550" height="3300" viewBox="0 0 2550 3300" shape-rendering="geometricPrecision"><rect width="100%" height="100%" fill="white"/><path fill="#000000" fill-rule="evenodd" d="M 1572.500 3149.947 C 1575.800 3149.374 1580.075 3148.686 1582.000 3148.419 C 1585.567 3147.924 1586.944 3147.540 1597.500 3144.100 C 1623.925 3135.488 1647.901 3115.875 1662.411 3091.000 C 1667.498 3082.279 1670.124 3075.916 1675.027 3060.431 C 1676.662 3055.267 1678.921 3037.902 1678.921 3030.500 C 1678.921 3023.098 1676.662 3005.733 1675.027 3000.569 C 1670.124 2985.084 1667.498 2978.721 1662.411 2970.000 C 1647.901 2945.125 1623.925 2925.512 1597.500 2916.900 C 1586.944 2913.460 1585.567 2913.076 1582.000 2912.581 C 1580.075 2912.314 1575.906 2911.646 1572.735 2911.098 C 1569.564 2910.549 1563.159 2910.100 1558.500 2910.100 C 1553.841 2910.100 1547.436 2910.549 1544.265 2911.098 C 1541.094 2911.646 1536.925 2912.314 1535.000 2912.581 C 1531.433 2913.076 1530.056 2913.460 1519.500 2916.900 C 1493.075 2925.512 1469.099 2945.125 1454.589 2970.000 C 1449.502 2978.721 1446.876 2985.084 1441.973 3000.569 C 1440.338 3005.733 1438.079 3023.098 1438.079 3030.500 C 1438.079 3037.902 1440.338 3055.267 1441.973 3060.431 C 1446.876 3075.916 1449.502 3082.279 1454.589 3091.000 C 1469.099 3115.875 1493.075 3135.488 1519.500 3144.100 C 1530.073 3147.546 1531.427 3147.919 1535.500 3148.520 C 1537.700 3148.844 1541.525 3149.478 1544.000 3149.929 C 1550.606 3151.134 1565.611 3151.143 1572.500 3149.947 Z M 1543.000 3141.076 C 1506.308 3135.738 1472.764 3110.744 1457.263 3077.194 C 1454.411 3071.020 1451.022 3061.614 1450.900 3059.529 C 1450.884 3059.258 1450.425 3057.566 1449.880 3055.768 C 1446.362 3044.162 1446.359 3016.755 1449.874 3005.232 C 1450.422 3003.434 1450.916 3001.634 1450.971 3001.232 C 1452.720 2988.439 1465.975 2965.852 1479.914 2951.914 C 1529.576 2902.251 1611.954 2910.197 1650.977 2968.413 C 1657.845 2978.660 1665.108 2994.495 1666.029 3001.232 C 1666.084 3001.634 1666.575 3003.434 1667.120 3005.232 C 1670.638 3016.838 1670.641 3044.245 1667.126 3055.768 C 1666.578 3057.566 1666.151 3059.141 1666.177 3059.268 C 1666.405 3060.357 1662.522 3071.166 1659.737 3077.194 C 1639.532 3120.924 1590.166 3147.939 1543.000 3141.076 Z M 2192.250 3083.262 C 2232.797 3042.662 2239.000 3036.058 2239.000 3033.497 C 2239.000 3028.474 2145.554 2935.600 2140.500 2935.600 C 2135.446 2935.600 2042.000 3028.474 2042.000 3033.497 C 2042.000 3036.592 2132.105 3128.415 2138.000 3131.327 C 2142.100 3133.352 2143.200 3132.377 2192.250 3083.262 Z M 1010.405 3122.079 C 1011.109 3121.495 1011.943 3121.276 1012.259 3121.592 C 1014.780 3124.114 1043.953 3111.559 1055.500 3102.982 C 1076.057 3087.714 1095.193 3057.805 1096.281 3039.243 C 1096.401 3037.184 1096.944 3035.183 1097.487 3034.795 C 1098.068 3034.379 1098.474 3027.269 1098.474 3017.500 C 1098.474 3007.731 1098.068 3000.621 1097.487 3000.205 C 1096.944 2999.817 1096.401 2997.816 1096.281 2995.757 C 1095.193 2977.195 1076.057 2947.286 1055.500 2932.018 C 1043.953 2923.441 1014.780 2910.886 1012.259 2913.408 C 1011.943 2913.724 1011.011 2913.424 1010.188 2912.741 C 1009.133 2911.866 1003.924 2911.500 992.500 2911.500 C 981.076 2911.500 975.867 2911.866 974.812 2912.741 C 973.989 2913.424 973.057 2913.724 972.741 2913.408 C 970.220 2910.886 941.047 2923.441 929.500 2932.018 C 908.943 2947.286 889.807 2977.195 888.719 2995.757 C 888.599 2997.816 888.056 2999.817 887.513 3000.205 C 886.198 3001.146 886.198 3033.854 887.513 3034.795 C 888.056 3035.183 888.599 3037.184 888.719 3039.243 C 889.510 3052.745 904.475 3080.338 918.221 3093.642 C 931.567 3106.558 964.601 3123.693 972.650 3121.875 C 973.118 3121.769 974.175 3121.962 975.000 3122.303 C 979.452 3124.144 1008.136 3123.962 1010.405 3122.079 Z M 2096.246 3077.746 C 2052.000 3033.492 2052.000 3033.492 2096.254 2989.246 C 2140.508 2945.000 2140.508 2945.000 2184.754 2989.254 C 2229.000 3033.508 2229.000 3033.508 2184.746 3077.754 C 2140.492 3122.000 2140.492 3122.000 2096.246 3077.746 Z M 980.500 3114.383 C 895.522 3101.568 865.104 2998.736 929.797 2942.973 C 979.702 2899.957 1058.497 2920.095 1083.350 2982.218 C 1110.190 3049.306 1051.245 3125.052 980.500 3114.383 Z M 454.674 3088.454 C 474.929 3076.545 492.512 3065.696 493.750 3064.345 C 496.653 3061.175 497.370 2972.400 494.525 2968.339 C 492.266 2965.113 416.876 2922.000 413.495 2922.000 C 410.182 2922.000 335.774 2963.816 332.250 2967.658 C 330.000 2970.112 330.000 2970.112 330.000 3016.000 C 330.000 3061.888 330.000 3061.888 332.250 3064.353 C 334.317 3066.616 406.517 3109.136 411.375 3110.951 C 414.457 3112.102 414.450 3112.106 454.674 3088.454 Z M 376.000 3080.591 C 339.500 3059.278 339.500 3059.278 339.500 3016.027 C 339.500 2972.776 339.500 2972.776 376.000 2951.924 C 396.075 2940.456 412.950 2931.077 413.500 2931.082 C 414.050 2931.086 430.700 2940.466 450.500 2951.926 C 486.500 2972.761 486.500 2972.761 486.500 3016.018 C 486.500 3059.275 486.500 3059.275 450.500 3080.594 C 430.700 3092.319 414.050 3101.910 413.500 3101.908 C 412.950 3101.906 396.075 3092.313 376.000 3080.591 Z M 1571.636 3069.661 C 1614.081 3054.352 1605.722 2991.882 1560.908 2989.493 C 1522.731 2987.457 1502.602 3033.578 1530.048 3060.203 C 1540.772 3070.607 1558.093 3074.545 1571.636 3069.661 Z M 435.359 3057.768 C 446.966 3051.041 457.259 3044.741 458.232 3043.768 C 460.929 3041.071 460.929 2991.929 458.232 2989.232 C 456.402 2987.402 414.817 2963.000 413.528 2963.000 C 412.194 2963.000 369.556 2987.444 367.765 2989.235 C 365.503 2991.497 365.038 3040.342 367.250 3043.276 C 368.486 3044.915 411.683 3069.914 413.377 3069.971 C 413.860 3069.987 423.752 3064.496 435.359 3057.768 Z M 1550.500 3064.111 C 1511.225 3053.484 1517.966 2996.567 1558.500 2996.567 C 1602.538 2996.567 1604.469 3062.182 1560.500 3064.546 C 1556.650 3064.753 1552.150 3064.557 1550.500 3064.111 Z M 393.250 3051.057 C 373.000 3039.585 373.000 3039.585 373.000 3016.503 C 373.000 2993.421 373.000 2993.421 393.250 2981.946 C 413.500 2970.470 413.500 2970.470 433.250 2981.942 C 453.000 2993.414 453.000 2993.414 453.000 3016.497 C 453.000 3039.580 453.000 3039.580 433.250 3051.055 C 413.500 3062.530 413.500 3062.530 393.250 3051.057 Z M 2147.652 3058.712 C 2169.738 3052.971 2173.150 3020.920 2152.796 3010.395 C 2126.481 2996.787 2101.165 3031.011 2122.077 3051.923 C 2125.081 3054.928 2133.000 3059.674 2133.000 3058.471 C 2133.000 3058.157 2133.787 3058.380 2134.750 3058.965 C 2136.442 3059.994 2143.233 3059.861 2147.652 3058.712 Z M 1001.911 3053.536 C 1004.888 3052.744 1007.693 3051.512 1008.146 3050.798 C 1008.599 3050.084 1008.976 3049.863 1008.985 3050.307 C 1009.016 3051.960 1015.374 3047.323 1020.035 3042.247 C 1035.293 3025.630 1031.255 2996.833 1012.106 2985.693 C 1010.398 2984.700 1008.993 2984.250 1008.985 2984.693 C 1008.976 2985.137 1008.599 2984.916 1008.146 2984.202 C 1007.089 2982.536 997.682 2980.024 992.500 2980.024 C 987.318 2980.024 977.911 2982.536 976.854 2984.202 C 976.401 2984.916 976.024 2985.137 976.015 2984.693 C 975.984 2983.040 969.626 2987.677 964.965 2992.753 C 949.707 3009.370 953.745 3038.167 972.894 3049.307 C 974.602 3050.300 976.007 3050.750 976.015 3050.307 C 976.024 3049.863 976.406 3050.092 976.865 3050.815 C 979.109 3054.354 993.118 3055.876 1001.911 3053.536 Z M 2132.500 3051.341 C 2116.863 3043.112 2116.973 3023.547 2132.700 3015.614 C 2144.552 3009.636 2160.139 3019.797 2160.139 3033.500 C 2160.139 3047.222 2144.211 3057.504 2132.500 3051.341 Z M 981.935 3046.120 C 954.934 3035.554 955.545 2998.166 982.876 2988.541 C 1002.098 2981.772 1023.000 2996.857 1023.000 3017.500 C 1023.000 3038.533 1001.263 3053.683 981.935 3046.120 Z M 1594.000 2854.943 C 1597.025 2854.442 1601.281 2853.769 1603.457 2853.447 C 1605.634 2853.125 1607.779 2852.637 1608.224 2852.362 C 1608.669 2852.087 1610.139 2851.661 1611.490 2851.416 C 1612.842 2851.171 1615.197 2850.454 1616.724 2849.824 C 1618.251 2849.193 1619.800 2848.737 1620.166 2848.810 C 1624.075 2849.594 1649.575 2833.367 1659.848 2823.560 C 1673.376 2810.644 1694.299 2774.966 1690.546 2771.212 C 1690.255 2770.922 1690.404 2770.193 1690.877 2769.592 C 1695.447 2763.786 1695.447 2719.214 1690.877 2713.408 C 1690.404 2712.807 1690.255 2712.078 1690.546 2711.788 C 1694.299 2708.034 1673.376 2672.356 1659.848 2659.440 C 1649.575 2649.633 1624.075 2633.406 1620.166 2634.190 C 1619.800 2634.263 1618.251 2633.807 1616.724 2633.176 C 1615.197 2632.546 1612.842 2631.829 1611.490 2631.584 C 1610.139 2631.339 1608.669 2630.913 1608.224 2630.638 C 1607.779 2630.363 1605.634 2629.878 1603.457 2629.560 C 1601.281 2629.242 1596.811 2628.561 1593.524 2628.046 C 1585.891 2626.852 1575.109 2626.852 1567.476 2628.046 C 1564.189 2628.561 1559.719 2629.242 1557.543 2629.560 C 1555.366 2629.878 1553.221 2630.363 1552.776 2630.638 C 1552.331 2630.913 1550.861 2631.339 1549.510 2631.584 C 1548.158 2631.829 1545.803 2632.546 1544.276 2633.176 C 1542.749 2633.807 1541.200 2634.263 1540.834 2634.190 C 1536.925 2633.406 1511.425 2649.633 1501.152 2659.440 C 1487.624 2672.356 1466.701 2708.034 1470.454 2711.788 C 1470.745 2712.078 1470.596 2712.807 1470.123 2713.408 C 1465.553 2719.214 1465.553 2763.786 1470.123 2769.592 C 1470.596 2770.193 1470.745 2770.922 1470.454 2771.212 C 1467.084 2774.583 1485.565 2807.362 1498.440 2820.848 C 1508.324 2831.201 1536.376 2849.704 1540.834 2848.810 C 1541.200 2848.737 1542.749 2849.193 1544.276 2849.824 C 1545.803 2850.454 1548.158 2851.171 1549.510 2851.416 C 1550.861 2851.661 1552.331 2852.087 1552.776 2852.362 C 1553.221 2852.637 1555.591 2853.157 1558.043 2853.518 C 1560.494 2853.879 1564.525 2854.525 1567.000 2854.954 C 1573.262 2856.038 1587.424 2856.032 1594.000 2854.943 Z M 1567.500 2846.385 C 1499.530 2836.090 1457.894 2768.119 1481.364 2705.766 C 1520.947 2600.603 1672.530 2619.722 1685.402 2731.500 C 1692.881 2796.445 1631.657 2856.102 1567.500 2846.385 Z M 435.405 2835.079 C 436.109 2834.495 436.943 2834.276 437.259 2834.592 C 439.780 2837.114 468.953 2824.559 480.500 2815.982 C 501.057 2800.714 520.193 2770.805 521.281 2752.243 C 521.401 2750.184 521.944 2748.183 522.487 2747.795 C 523.068 2747.379 523.474 2740.269 523.474 2730.500 C 523.474 2720.731 523.068 2713.621 522.487 2713.205 C 521.944 2712.817 521.401 2710.816 521.281 2708.757 C 520.193 2690.195 501.057 2660.286 480.500 2645.018 C 468.953 2636.441 439.780 2623.886 437.259 2626.408 C 436.943 2626.724 436.011 2626.424 435.188 2625.741 C 434.133 2624.866 428.924 2624.500 417.500 2624.500 C 406.076 2624.500 400.867 2624.866 399.812 2625.741 C 398.989 2626.424 398.057 2626.724 397.741 2626.408 C 395.220 2623.886 366.047 2636.441 354.500 2645.018 C 333.943 2660.286 314.807 2690.195 313.719 2708.757 C 313.599 2710.816 313.056 2712.817 312.513 2713.205 C 311.932 2713.621 311.526 2720.731 311.526 2730.500 C 311.526 2740.269 311.932 2747.379 312.513 2747.795 C 313.056 2748.183 313.599 2750.184 313.719 2752.243 C 314.510 2765.745 329.475 2793.338 343.221 2806.642 C 356.567 2819.558 389.601 2836.693 397.650 2834.875 C 398.118 2834.769 399.175 2834.962 400.000 2835.303 C 404.452 2837.144 433.136 2836.962 435.405 2835.079 Z M 405.500 2827.383 C 320.522 2814.568 290.104 2711.736 354.797 2655.973 C 404.702 2612.957 483.497 2633.095 508.350 2695.218 C 535.190 2762.306 476.245 2838.052 405.500 2827.383 Z M 2179.087 2800.718 C 2181.723 2798.694 2182.252 2797.219 2198.402 2746.854 C 2216.192 2691.372 2215.807 2693.466 2209.198 2688.273 C 2190.266 2673.399 2126.589 2628.527 2123.991 2628.231 C 2121.254 2627.918 2055.943 2672.950 2036.250 2688.729 C 2030.300 2693.496 2030.005 2691.990 2047.598 2746.854 C 2063.748 2797.219 2064.277 2798.694 2066.913 2800.718 C 2069.206 2802.479 2176.794 2802.479 2179.087 2800.718 Z M 1017.087 2794.718 C 1019.695 2792.716 1020.198 2791.328 1035.895 2742.873 C 1053.145 2689.624 1052.809 2691.469 1046.203 2686.273 C 1027.874 2671.855 967.569 2629.525 964.927 2629.223 C 962.148 2628.906 900.461 2671.293 881.250 2686.721 C 875.296 2691.502 875.049 2690.222 892.105 2742.873 C 907.802 2791.328 908.305 2792.716 910.913 2794.718 C 913.204 2796.477 1014.796 2796.477 1017.087 2794.718 Z M 2071.679 2792.259 C 2071.432 2791.842 2064.384 2770.142 2056.018 2744.038 C 2040.806 2696.575 2040.806 2696.575 2043.153 2694.664 C 2049.142 2689.785 2122.617 2637.679 2123.500 2637.683 C 2124.845 2637.691 2204.138 2695.174 2204.598 2696.476 C 2204.797 2697.039 2198.087 2718.875 2189.687 2745.000 C 2174.414 2792.500 2174.414 2792.500 2123.271 2792.759 C 2095.143 2792.902 2071.927 2792.677 2071.679 2792.259 Z M 915.679 2786.260 C 915.134 2785.341 886.000 2695.390 886.000 2694.626 C 886.000 2693.803 963.360 2638.677 964.500 2638.688 C 965.859 2638.701 1041.134 2693.163 1041.593 2694.465 C 1041.793 2695.034 1035.310 2715.975 1027.184 2741.000 C 1012.411 2786.500 1012.411 2786.500 964.271 2786.760 C 937.793 2786.902 915.927 2786.677 915.679 2786.260 Z M 1593.103 2778.595 C 1617.490 2770.864 1627.562 2738.832 1612.057 2718.318 C 1589.540 2688.525 1542.853 2703.231 1541.486 2740.548 C 1540.497 2767.548 1566.797 2786.934 1593.103 2778.595 Z M 1568.724 2771.629 C 1535.559 2757.693 1544.693 2709.500 1580.500 2709.500 C 1622.537 2709.500 1623.508 2771.885 1581.500 2773.746 C 1575.867 2773.996 1573.372 2773.582 1568.724 2771.629 Z M 426.911 2766.536 C 429.888 2765.744 432.693 2764.512 433.146 2763.798 C 433.599 2763.084 433.976 2762.863 433.985 2763.307 C 434.016 2764.960 440.374 2760.323 445.035 2755.247 C 457.769 2741.379 457.769 2719.621 445.035 2705.753 C 440.374 2700.677 434.016 2696.040 433.985 2697.693 C 433.976 2698.137 433.599 2697.916 433.146 2697.202 C 432.089 2695.536 422.682 2693.024 417.500 2693.024 C 412.318 2693.024 402.911 2695.536 401.854 2697.202 C 401.401 2697.916 401.024 2698.137 401.015 2697.693 C 400.984 2696.040 394.626 2700.677 389.965 2705.753 C 377.231 2719.621 377.231 2741.379 389.965 2755.247 C 394.626 2760.323 400.984 2764.960 401.015 2763.307 C 401.024 2762.863 401.406 2763.092 401.865 2763.815 C 404.109 2767.354 418.118 2768.876 426.911 2766.536 Z M 406.935 2759.120 C 379.934 2748.554 380.545 2711.166 407.876 2701.541 C 427.098 2694.772 448.000 2709.857 448.000 2730.500 C 448.000 2751.533 426.263 2766.683 406.935 2759.120 Z M 2130.652 2748.712 C 2152.738 2742.971 2156.150 2710.920 2135.796 2700.395 C 2109.481 2686.787 2084.165 2721.011 2105.077 2741.923 C 2108.081 2744.928 2116.000 2749.674 2116.000 2748.471 C 2116.000 2748.157 2116.787 2748.380 2117.750 2748.965 C 2119.442 2749.994 2126.233 2749.861 2130.652 2748.712 Z M 975.572 2743.203 C 999.143 2731.084 990.889 2695.590 964.500 2695.590 C 935.367 2695.590 930.064 2735.966 957.994 2745.125 C 961.964 2746.427 971.282 2745.408 975.572 2743.203 Z M 2115.500 2741.341 C 2099.863 2733.112 2099.973 2713.547 2115.700 2705.614 C 2127.552 2699.636 2143.139 2709.797 2143.139 2723.500 C 2143.139 2737.222 2127.211 2747.504 2115.500 2741.341 Z M 956.384 2737.087 C 942.427 2730.749 942.427 2710.251 956.384 2703.913 C 970.619 2697.449 986.049 2709.480 982.759 2724.480 C 980.950 2732.733 973.100 2738.956 964.500 2738.956 C 962.300 2738.956 958.648 2738.115 956.384 2737.087 Z M 452.500 2525.954 C 480.025 2518.726 502.551 2500.080 513.482 2475.472 C 515.894 2470.041 517.013 2466.571 520.245 2454.500 C 520.834 2452.300 521.316 2444.650 521.316 2437.500 C 521.316 2430.350 520.834 2422.700 520.245 2420.500 C 517.013 2408.429 515.894 2404.959 513.482 2399.528 C 482.276 2329.280 378.724 2329.280 347.518 2399.528 C 345.106 2404.959 343.987 2408.429 340.755 2420.500 C 340.166 2422.700 339.684 2430.350 339.684 2437.500 C 339.684 2444.650 340.166 2452.300 340.755 2454.500 C 343.987 2466.571 345.106 2470.041 347.518 2475.472 C 364.947 2514.706 411.000 2536.851 452.500 2525.954 Z M 416.500 2518.918 C 349.958 2505.783 325.067 2426.904 372.507 2379.500 C 420.299 2331.743 500.296 2357.749 512.016 2424.852 C 521.409 2478.637 469.820 2529.443 416.500 2518.918 Z M 1026.728 2472.436 C 1046.403 2461.090 1063.513 2450.700 1064.750 2449.347 C 1067.647 2446.181 1068.368 2360.398 1065.532 2356.349 C 1063.290 2353.148 989.859 2311.000 986.524 2311.000 C 983.266 2311.000 910.776 2351.849 907.250 2355.672 C 905.000 2358.112 905.000 2358.112 905.000 2402.500 C 905.000 2446.888 905.000 2446.888 907.250 2449.328 C 909.227 2451.472 981.122 2492.996 985.000 2494.234 C 987.420 2495.007 989.243 2494.054 1026.728 2472.436 Z M 1605.087 2493.718 C 1607.726 2491.692 1608.172 2490.437 1626.898 2432.352 C 1647.384 2368.812 1646.842 2371.499 1640.216 2366.273 C 1614.091 2345.669 1544.531 2296.500 1541.507 2296.500 C 1538.473 2296.500 1466.342 2346.975 1441.799 2366.273 C 1435.155 2371.497 1434.611 2368.795 1455.102 2432.352 C 1473.828 2490.437 1474.274 2491.692 1476.913 2493.718 C 1479.210 2495.482 1602.790 2495.482 1605.087 2493.718 Z M 1481.676 2485.258 C 1478.714 2480.292 1446.082 2374.495 1447.181 2373.425 C 1449.885 2370.793 1540.539 2305.696 1541.500 2305.697 C 1542.846 2305.698 1635.126 2373.140 1635.588 2374.460 C 1635.789 2375.032 1627.958 2400.250 1618.188 2430.500 C 1600.422 2485.500 1600.422 2485.500 1541.275 2485.758 C 1508.744 2485.900 1481.924 2485.675 1481.676 2485.258 Z M 950.000 2464.607 C 914.500 2444.269 914.500 2444.269 914.500 2402.500 C 914.500 2360.731 914.500 2360.731 950.000 2340.393 C 969.525 2329.207 985.950 2320.062 986.500 2320.071 C 987.050 2320.080 1003.250 2329.237 1022.500 2340.421 C 1057.500 2360.754 1057.500 2360.754 1057.500 2402.500 C 1057.500 2444.246 1057.500 2444.246 1022.500 2464.579 C 1003.250 2475.763 987.050 2484.920 986.500 2484.929 C 985.950 2484.938 969.525 2475.793 950.000 2464.607 Z M 2182.087 2482.718 C 2184.686 2480.723 2185.212 2479.277 2199.893 2433.851 C 2216.105 2383.687 2215.800 2385.469 2209.085 2380.162 C 2183.883 2360.240 2134.564 2325.500 2131.485 2325.500 C 2128.408 2325.500 2076.322 2361.755 2052.794 2380.273 C 2046.218 2385.449 2045.932 2383.803 2062.107 2433.851 C 2076.788 2479.277 2077.314 2480.723 2079.913 2482.718 C 2082.203 2484.476 2179.797 2484.476 2182.087 2482.718 Z M 2084.675 2474.260 C 2081.742 2469.361 2057.066 2388.512 2058.176 2387.437 C 2060.939 2384.758 2130.547 2334.691 2131.500 2334.696 C 2132.848 2334.703 2204.116 2387.119 2204.589 2388.450 C 2204.794 2389.028 2198.766 2408.625 2191.193 2432.000 C 2177.426 2474.500 2177.426 2474.500 2131.278 2474.760 C 2105.897 2474.903 2084.926 2474.678 2084.675 2474.260 Z M 443.300 2467.098 C 474.978 2452.622 465.189 2405.546 430.500 2405.546 C 401.070 2405.546 387.160 2441.650 408.991 2461.373 C 418.453 2469.922 432.128 2472.203 443.300 2467.098 Z M 421.437 2461.400 C 399.707 2453.688 399.988 2420.984 421.848 2413.536 C 448.069 2404.602 468.037 2437.559 447.707 2456.214 C 440.760 2462.589 430.496 2464.615 421.437 2461.400 Z M 1007.372 2442.283 C 1033.921 2426.777 1031.000 2431.695 1031.000 2402.500 C 1031.000 2380.329 1030.831 2377.831 1029.217 2376.217 C 1026.031 2373.031 987.007 2350.783 985.571 2351.334 C 981.714 2352.814 943.329 2375.328 942.250 2376.743 C 941.330 2377.950 941.000 2384.747 941.000 2402.500 C 941.000 2420.252 941.330 2427.051 942.250 2428.259 C 943.515 2429.920 984.734 2453.925 986.405 2453.974 C 986.902 2453.988 996.338 2448.727 1007.372 2442.283 Z M 967.233 2435.567 C 948.000 2424.581 948.000 2424.581 948.000 2402.500 C 948.000 2380.419 948.000 2380.419 967.233 2369.433 C 986.467 2358.448 986.467 2358.448 1005.233 2369.449 C 1024.000 2380.450 1024.000 2380.450 1024.000 2402.500 C 1024.000 2424.550 1024.000 2424.550 1005.233 2435.551 C 986.467 2446.552 986.467 2446.552 967.233 2435.567 Z M 2142.744 2433.899 C 2164.595 2420.686 2156.629 2388.583 2131.500 2388.583 C 2106.947 2388.583 2098.432 2420.169 2119.414 2433.420 C 2125.914 2437.526 2136.391 2437.741 2142.744 2433.899 Z M 1549.509 2433.454 C 1556.761 2431.346 1570.834 2420.069 1566.318 2419.985 C 1565.868 2419.976 1566.095 2419.592 1566.822 2419.131 C 1567.550 2418.670 1568.597 2416.539 1569.151 2414.396 C 1571.148 2406.663 1569.815 2393.766 1566.822 2391.869 C 1566.095 2391.408 1565.868 2391.024 1566.318 2391.015 C 1567.864 2390.986 1562.734 2384.820 1558.782 2381.957 C 1546.103 2372.772 1526.837 2375.590 1518.063 2387.911 C 1516.854 2389.610 1516.232 2391.007 1516.682 2391.015 C 1517.132 2391.024 1516.905 2391.408 1516.178 2391.869 C 1515.450 2392.330 1514.403 2394.461 1513.849 2396.604 C 1511.852 2404.337 1513.185 2417.234 1516.178 2419.131 C 1516.905 2419.592 1517.132 2419.976 1516.682 2419.985 C 1515.279 2420.011 1519.968 2425.874 1523.620 2428.660 C 1531.060 2434.334 1540.482 2436.079 1549.509 2433.454 Z M 2125.000 2428.879 C 2110.319 2423.042 2110.525 2401.652 2125.315 2396.064 C 2136.505 2391.836 2149.167 2400.561 2149.167 2412.500 C 2149.167 2424.491 2136.151 2433.313 2125.000 2428.879 Z M 1534.764 2427.064 C 1510.083 2419.095 1515.587 2383.500 1541.500 2383.500 C 1570.377 2383.500 1572.052 2425.671 1543.250 2427.568 C 1540.088 2427.777 1536.269 2427.550 1534.764 2427.064 Z M 649.500 2239.986 C 678.393 2234.429 694.470 2211.028 694.490 2174.500 C 694.511 2135.949 679.592 2114.275 647.038 2105.563 C 636.820 2102.828 633.892 2101.291 631.264 2097.280 C 628.467 2093.012 628.524 1316.289 631.321 1311.162 C 634.252 1305.790 639.131 1304.304 661.222 1302.053 C 688.707 1299.254 693.447 1297.936 701.510 1290.857 C 712.437 1281.263 712.325 1282.308 712.419 1189.000 C 712.518 1091.818 709.787 1101.651 738.270 1095.920 C 951.325 1053.046 1237.932 1034.409 1445.000 1049.964 C 1451.875 1050.480 1464.250 1051.387 1472.500 1051.978 C 1577.681 1059.517 1686.266 1073.185 1786.645 1091.518 C 1826.321 1098.765 1829.128 1099.660 1832.701 1106.206 C 1834.379 1109.279 1834.535 1115.041 1835.019 1192.000 C 1835.598 1284.026 1835.216 1279.219 1842.638 1287.890 C 1850.188 1296.711 1857.149 1298.951 1886.500 1302.002 C 1907.875 1304.225 1911.802 1305.354 1915.435 1310.323 C 1918.444 1314.438 1918.741 2092.693 1915.736 2097.280 C 1913.177 2101.186 1910.521 2102.624 1900.503 2105.527 C 1867.654 2115.046 1853.500 2135.364 1853.500 2173.000 C 1853.500 2210.659 1866.096 2230.650 1895.500 2239.661 C 1903.004 2241.961 2089.809 2242.310 2102.000 2240.047 C 2123.646 2236.029 2142.574 2216.534 2146.567 2194.144 C 2154.522 2149.542 2137.111 2115.921 2100.771 2105.710 C 2091.270 2103.040 2087.854 2101.233 2085.491 2097.626 C 2083.602 2094.744 2083.163 1340.614 2085.046 1333.795 C 2087.254 1325.801 2093.040 1324.515 2113.257 1327.526 C 2173.125 1336.442 2240.322 1349.176 2302.000 1363.291 C 2345.044 1373.142 2352.284 1373.197 2359.352 1363.730 C 2362.047 1360.121 2362.679 1351.440 2360.675 1345.560 C 2357.914 1337.457 2300.535 1231.013 2247.440 1135.500 C 2227.047 1098.814 2226.523 1103.461 2254.983 1068.500 C 2264.385 1056.950 2279.910 1037.825 2289.482 1026.000 C 2310.532 999.997 2322.654 985.203 2345.854 957.205 C 2373.036 924.401 2375.142 916.108 2359.073 905.151 C 2341.742 893.335 2232.896 860.840 2154.500 844.078 C 2111.404 834.863 2115.517 842.624 2115.507 770.500 C 2115.498 704.817 2115.855 706.274 2096.406 692.396 C 2082.401 682.402 2082.858 684.643 2083.212 627.753 C 2083.545 574.263 2082.854 578.179 2094.349 564.692 C 2152.815 496.100 2123.367 391.444 2037.928 364.177 C 1988.145 348.288 1932.238 367.902 1900.946 412.233 C 1870.135 455.884 1872.127 519.555 1905.602 561.006 C 1917.359 575.565 1917.440 575.817 1917.828 599.488 C 1918.449 637.352 1918.032 637.702 1881.393 630.059 C 1692.288 590.611 1482.799 570.000 1270.959 570.000 C 1196.872 570.000 1131.954 572.120 1057.000 576.988 C 932.633 585.066 795.503 603.684 666.826 629.961 C 627.735 637.944 628.583 638.595 629.177 601.087 C 629.576 575.865 629.100 577.354 642.038 560.793 C 715.707 466.492 625.705 330.468 511.500 363.508 C 429.187 387.322 394.855 494.175 448.519 559.527 C 465.166 579.800 464.001 574.501 463.994 629.932 C 463.988 684.599 464.439 682.301 451.793 691.974 C 431.670 707.365 432.605 703.581 432.000 772.000 C 431.476 831.265 431.551 830.350 426.842 834.627 C 423.727 837.456 421.238 838.163 395.500 843.536 C 306.809 862.051 195.425 896.932 183.759 909.844 C 174.076 920.563 176.081 925.398 204.588 960.070 C 213.890 971.384 237.025 999.704 256.000 1023.005 C 274.975 1046.306 295.395 1071.249 301.378 1078.435 C 320.071 1100.887 320.054 1100.299 302.939 1131.246 C 296.169 1143.486 282.907 1167.450 273.468 1184.500 C 264.028 1201.550 252.566 1222.475 247.997 1231.000 C 243.427 1239.525 237.578 1250.325 234.998 1255.000 C 196.629 1324.533 185.538 1347.410 186.218 1355.612 C 187.673 1373.157 197.507 1374.614 243.000 1364.022 C 310.079 1348.405 428.371 1326.825 448.139 1326.599 C 458.010 1326.486 460.259 1327.671 461.989 1333.900 C 463.361 1338.839 463.373 2089.119 462.001 2094.057 C 460.529 2099.354 456.498 2102.430 447.000 2105.500 C 419.225 2114.480 403.798 2132.207 399.892 2159.633 C 393.811 2202.330 414.073 2235.534 449.500 2240.925 C 458.500 2242.294 641.977 2241.434 649.500 2239.986 Z M 456.000 2207.613 C 426.390 2201.047 424.330 2149.880 453.254 2139.401 C 459.651 2137.083 622.413 2135.810 635.000 2137.979 C 668.851 2143.812 672.404 2198.888 639.482 2207.463 C 631.666 2209.498 465.119 2209.635 456.000 2207.613 Z M 1909.000 2207.628 C 1879.559 2201.016 1877.354 2149.056 1906.102 2139.341 C 1912.687 2137.116 2075.724 2135.923 2087.889 2138.010 C 2106.212 2141.155 2114.397 2152.137 2114.341 2173.500 C 2114.294 2191.333 2108.995 2201.429 2097.172 2206.207 C 2090.363 2208.959 1920.634 2210.241 1909.000 2207.628 Z M 506.333 2102.925 C 502.007 2101.642 498.246 2096.870 497.520 2091.745 C 495.536 2077.723 497.523 1327.115 499.552 1324.323 C 504.274 1317.826 513.738 1315.841 561.000 1311.437 C 588.055 1308.916 592.933 1310.337 594.469 1321.187 C 596.218 1333.534 594.519 2094.559 592.736 2097.280 C 588.609 2103.579 589.292 2103.482 547.546 2103.682 C 526.129 2103.785 508.116 2103.454 506.333 2102.925 Z M 1960.333 2102.925 C 1956.007 2101.642 1952.246 2096.870 1951.520 2091.745 C 1949.777 2079.425 1951.488 1319.521 1953.267 1316.267 C 1957.392 1308.719 1963.567 1308.468 2009.079 1313.997 C 2044.398 1318.287 2047.982 1319.714 2049.451 1330.060 C 2051.212 1342.473 2049.531 2094.540 2047.736 2097.280 C 2043.604 2103.586 2044.346 2103.482 2002.046 2103.682 C 1980.325 2103.785 1962.118 2103.454 1960.333 2102.925 Z M 244.000 1325.712 C 240.431 1323.917 240.255 1319.312 243.484 1312.231 C 249.045 1300.038 293.712 1217.865 339.715 1135.198 C 360.596 1097.675 360.660 1098.960 336.393 1068.863 C 318.833 1047.085 262.996 978.675 245.696 957.743 C 221.157 928.052 221.537 926.656 257.312 915.108 C 311.384 897.654 401.919 874.939 418.639 874.631 C 433.126 874.365 431.988 861.970 431.994 1020.066 C 432.000 1162.689 431.994 1162.476 436.803 1171.355 C 442.458 1181.796 445.182 1183.352 517.500 1217.441 C 598.702 1255.717 611.491 1262.550 610.812 1267.296 C 610.077 1272.438 608.600 1272.688 526.500 1281.556 C 455.989 1289.172 371.845 1302.483 292.000 1318.653 C 245.173 1328.137 247.993 1327.722 244.000 1325.712 Z M 2256.000 1318.462 C 2175.245 1302.115 2093.993 1289.490 2011.500 1280.472 C 1939.613 1272.613 1933.878 1271.381 1938.260 1264.742 C 1941.377 1260.023 1975.391 1242.839 2047.000 1209.808 C 2097.676 1186.433 2105.715 1181.389 2111.692 1169.219 C 2115.136 1162.205 2114.953 1170.655 2115.271 1004.000 C 2115.523 872.603 2115.189 879.543 2121.457 875.436 C 2128.769 870.645 2217.088 891.306 2286.601 914.068 C 2325.915 926.942 2326.419 927.972 2305.719 953.170 C 2285.641 977.611 2237.289 1037.112 2211.808 1068.737 C 2185.560 1101.312 2183.926 1091.800 2229.986 1174.500 C 2236.419 1186.050 2243.622 1199.100 2245.993 1203.500 C 2248.364 1207.900 2254.898 1219.825 2260.514 1230.000 C 2305.325 1311.193 2309.344 1319.656 2305.104 1323.896 C 2301.801 1327.199 2295.979 1326.555 2256.000 1318.462 Z M 666.634 1248.818 C 664.508 1248.359 655.508 1244.551 646.634 1240.356 C 637.760 1236.160 618.800 1227.231 604.500 1220.513 C 492.049 1167.683 494.408 1168.936 495.174 1162.437 C 496.129 1154.328 578.021 1129.138 656.261 1112.888 C 679.875 1107.983 678.500 1103.844 678.500 1179.823 C 678.500 1252.866 678.746 1251.434 666.634 1248.818 Z M 1872.189 1248.353 C 1868.339 1245.235 1868.048 1240.490 1868.029 1180.500 C 1868.007 1109.395 1867.637 1111.381 1880.861 1111.620 C 1899.405 1111.955 2024.915 1145.600 2045.500 1155.754 C 2053.461 1159.681 2054.983 1164.153 2049.835 1168.486 C 2045.321 1172.284 2007.517 1190.813 1933.000 1225.751 C 1877.122 1251.949 1876.783 1252.075 1872.189 1248.353 Z M 468.625 1125.138 C 465.059 1121.198 465.000 1117.962 465.000 925.699 C 465.000 719.625 464.766 728.301 470.488 722.578 C 482.824 710.243 585.667 681.039 691.000 659.960 C 912.492 615.635 1145.097 596.995 1377.000 604.985 C 1617.240 613.262 1884.936 654.222 2039.542 706.359 C 2073.382 717.770 2078.410 720.614 2080.956 729.781 C 2082.296 734.605 2082.363 1113.726 2081.025 1119.500 C 2078.865 1128.825 2075.113 1128.949 2049.314 1120.547 C 1890.615 1068.864 1678.061 1031.855 1454.500 1016.983 C 1363.566 1010.934 1229.988 1009.675 1146.000 1014.077 C 1086.727 1017.183 1074.671 1017.928 1042.500 1020.474 C 975.326 1025.788 920.183 1032.205 844.500 1043.516 C 809.933 1048.682 801.145 1050.150 751.000 1059.137 C 659.786 1075.485 569.573 1097.364 501.824 1119.568 C 477.668 1127.485 471.661 1128.493 468.625 1125.138 Z M 501.261 667.471 C 497.703 664.978 497.011 659.772 497.011 635.500 C 497.011 599.971 497.821 598.939 521.591 604.188 C 535.351 607.227 557.277 607.208 571.360 604.145 C 593.214 599.391 595.673 601.806 594.854 627.219 C 594.276 645.155 592.580 646.782 567.500 653.468 C 559.800 655.520 544.119 659.855 532.652 663.100 C 511.026 669.220 504.965 670.064 501.261 667.471 Z M 2024.000 665.478 C 2017.675 663.595 2001.700 659.066 1988.500 655.414 C 1952.258 645.387 1952.500 645.605 1952.500 622.956 C 1952.500 600.577 1953.850 599.416 1974.910 603.677 C 1992.504 607.237 2011.022 607.404 2027.000 604.147 C 2049.352 599.590 2049.989 600.458 2049.989 635.500 C 2049.989 671.179 2048.585 672.798 2024.000 665.478 Z M 527.500 571.401 C 445.689 553.192 430.780 441.680 505.000 403.103 C 581.548 363.316 663.745 445.751 625.049 523.500 C 606.967 559.831 565.969 579.964 527.500 571.401 Z M 1983.500 571.401 C 1899.243 552.622 1887.106 437.623 1965.504 400.885 C 2023.887 373.526 2090.782 417.501 2090.418 483.000 C 2090.100 540.206 2037.747 583.492 1983.500 571.401 Z M 2191.735 304.926 C 2209.756 294.401 2225.512 284.688 2226.750 283.339 C 2229.000 280.888 2229.000 280.888 2229.000 240.000 C 2229.000 199.112 2229.000 199.112 2226.750 196.672 C 2223.210 192.834 2157.733 156.000 2154.451 156.000 C 2151.136 156.000 2084.728 192.896 2081.250 196.670 C 2079.000 199.112 2079.000 199.112 2079.000 240.000 C 2079.000 280.888 2079.000 280.888 2081.250 283.349 C 2083.308 285.599 2147.409 323.096 2152.360 324.945 C 2155.442 326.097 2155.768 325.931 2191.735 304.926 Z M 451.250 278.257 C 482.018 247.427 487.000 242.026 487.000 239.496 C 487.000 234.496 415.540 163.600 410.500 163.600 C 405.460 163.600 334.000 234.496 334.000 239.496 C 334.000 242.586 402.186 312.460 408.000 315.328 C 412.054 317.329 413.448 316.134 451.250 278.257 Z M 2121.000 297.090 C 2088.500 278.267 2088.500 278.267 2088.500 240.041 C 2088.500 201.815 2088.500 201.815 2121.000 183.434 C 2138.875 173.325 2153.950 165.054 2154.500 165.054 C 2155.050 165.054 2169.900 173.307 2187.500 183.394 C 2219.500 201.733 2219.500 201.733 2219.500 239.989 C 2219.500 278.246 2219.500 278.246 2187.500 297.084 C 2169.900 307.445 2155.050 315.919 2154.500 315.917 C 2153.950 315.914 2138.875 307.442 2121.000 297.090 Z M 377.244 272.744 C 344.000 239.489 344.000 239.489 377.256 206.244 C 410.511 173.000 410.511 173.000 443.756 206.256 C 477.000 239.511 477.000 239.511 443.744 272.756 C 410.489 306.000 410.489 306.000 377.244 272.744 Z M 1053.087 298.718 C 1055.675 296.731 1056.248 295.173 1069.393 254.353 C 1083.124 211.714 1083.405 210.357 1079.213 206.839 C 1068.750 198.057 1010.510 157.518 1007.934 157.224 C 1005.206 156.912 943.756 198.680 934.250 207.307 C 930.715 210.515 931.203 212.729 944.607 254.353 C 957.752 295.173 958.325 296.731 960.913 298.718 C 963.199 300.473 1050.801 300.473 1053.087 298.718 Z M 965.677 290.261 C 962.783 285.421 941.064 213.518 942.176 212.460 C 944.961 209.809 1006.471 166.667 1007.459 166.671 C 1008.851 166.676 1072.118 212.122 1072.591 213.456 C 1072.795 214.030 1067.441 231.600 1060.693 252.500 C 1048.424 290.500 1048.424 290.500 1007.278 290.761 C 984.647 290.905 965.927 290.680 965.677 290.261 Z M 1561.072 289.601 C 1623.372 279.487 1648.173 203.707 1604.209 157.799 C 1565.697 117.584 1496.812 131.365 1475.953 183.458 C 1453.455 239.645 1501.297 299.304 1561.072 289.601 Z M 2173.875 277.270 C 2184.096 271.369 2193.256 265.744 2194.230 264.770 C 2196.922 262.078 2196.922 218.922 2194.230 216.230 C 2192.395 214.395 2155.854 193.000 2154.556 193.000 C 2153.203 193.000 2115.558 214.442 2113.768 216.232 C 2111.509 218.491 2111.047 261.354 2113.250 264.276 C 2114.490 265.920 2152.677 287.910 2154.395 287.969 C 2154.887 287.986 2163.653 283.172 2173.875 277.270 Z M 1534.500 280.567 C 1479.857 267.759 1460.345 202.559 1499.452 163.452 C 1540.258 122.645 1608.869 146.204 1617.351 203.935 C 1624.061 249.613 1579.254 291.057 1534.500 280.567 Z M 2136.750 270.560 C 2119.000 260.585 2119.000 260.585 2119.000 240.503 C 2119.000 220.422 2119.000 220.422 2136.750 210.443 C 2154.500 200.464 2154.500 200.464 2171.750 210.457 C 2189.000 220.450 2189.000 220.450 2189.000 240.497 C 2189.000 260.544 2189.000 260.544 2171.750 270.540 C 2154.500 280.535 2154.500 280.535 2136.750 270.560 Z M 419.123 258.806 C 420.374 258.088 422.293 256.712 423.388 255.750 C 424.482 254.787 425.769 254.000 426.248 254.000 C 426.726 254.000 426.869 253.597 426.565 253.105 C 426.260 252.612 426.748 251.927 427.649 251.581 C 428.549 251.236 429.001 250.667 428.652 250.318 C 428.303 249.970 428.486 249.119 429.059 248.429 C 431.853 245.062 431.853 233.938 429.059 230.571 C 428.486 229.881 428.303 229.030 428.652 228.682 C 429.001 228.333 428.549 227.764 427.649 227.419 C 426.748 227.073 426.260 226.388 426.565 225.895 C 426.869 225.403 426.726 225.000 426.248 225.000 C 425.769 225.000 424.505 224.213 423.439 223.250 C 416.306 216.811 404.694 216.811 397.561 223.250 C 396.495 224.213 395.231 225.000 394.752 225.000 C 394.274 225.000 394.131 225.403 394.435 225.895 C 394.740 226.388 394.252 227.073 393.351 227.419 C 392.451 227.764 391.999 228.333 392.348 228.682 C 392.697 229.030 392.514 229.881 391.941 230.571 C 390.813 231.931 389.733 236.297 389.733 239.500 C 389.733 242.703 390.813 247.069 391.941 248.429 C 392.514 249.119 392.697 249.970 392.348 250.318 C 391.999 250.667 392.451 251.236 393.351 251.581 C 394.252 251.927 394.740 252.612 394.435 253.105 C 394.131 253.597 394.274 254.000 394.752 254.000 C 395.231 254.000 396.495 254.787 397.561 255.750 C 399.379 257.391 402.538 259.133 406.000 260.405 C 408.335 261.262 416.597 260.256 419.123 258.806 Z M 1016.123 254.806 C 1017.374 254.088 1019.293 252.713 1020.388 251.750 C 1021.482 250.787 1022.769 250.000 1023.248 250.000 C 1023.726 250.000 1023.869 249.597 1023.565 249.105 C 1023.260 248.612 1023.748 247.927 1024.649 247.581 C 1025.549 247.236 1026.001 246.667 1025.652 246.318 C 1025.303 245.970 1025.486 245.119 1026.059 244.429 C 1027.187 243.069 1028.267 238.703 1028.267 235.500 C 1028.267 232.297 1027.187 227.931 1026.059 226.571 C 1025.486 225.881 1025.303 225.030 1025.652 224.682 C 1026.001 224.333 1025.549 223.764 1024.649 223.419 C 1023.748 223.073 1023.260 222.388 1023.565 221.895 C 1023.869 221.403 1023.726 221.000 1023.248 221.000 C 1022.769 221.000 1021.505 220.213 1020.439 219.250 C 1013.306 212.811 1001.694 212.811 994.561 219.250 C 993.495 220.213 992.231 221.000 991.752 221.000 C 991.274 221.000 991.131 221.403 991.435 221.895 C 991.740 222.388 991.252 223.073 990.351 223.419 C 989.451 223.764 988.999 224.333 989.348 224.682 C 989.697 225.030 989.514 225.881 988.941 226.571 C 986.147 229.938 986.147 241.062 988.941 244.429 C 989.514 245.119 989.697 245.970 989.348 246.318 C 988.999 246.667 989.451 247.236 990.351 247.581 C 991.252 247.927 991.740 248.612 991.435 249.105 C 991.131 249.597 991.274 250.000 991.752 250.000 C 992.231 250.000 993.495 250.787 994.561 251.750 C 996.379 253.391 999.538 255.133 1003.000 256.405 C 1005.335 257.262 1013.597 256.256 1016.123 254.806 Z M 400.909 250.250 C 393.898 243.699 393.888 235.293 400.882 228.769 C 411.375 218.981 427.955 228.820 424.867 243.000 C 423.522 249.174 417.219 254.000 410.500 254.000 C 405.435 254.000 404.554 253.655 400.909 250.250 Z M 997.909 246.250 C 990.898 239.699 990.888 231.293 997.882 224.769 C 1008.375 214.981 1024.955 224.820 1021.867 239.000 C 1020.522 245.174 1014.219 250.000 1007.500 250.000 C 1002.435 250.000 1001.554 249.655 997.909 246.250 Z M 1560.264 237.004 C 1585.968 223.756 1577.229 185.500 1548.500 185.500 C 1520.711 185.500 1511.225 221.481 1535.120 236.255 C 1541.959 240.484 1552.881 240.810 1560.264 237.004 Z M 1539.587 230.968 C 1520.010 221.199 1526.688 192.000 1548.500 192.000 C 1559.994 192.000 1569.000 201.006 1569.000 212.500 C 1569.000 227.609 1552.995 237.658 1539.587 230.968 Z"/></svg>
