<svg xmlns="http://www.w3.org/2000/svg" width="2550" height="3300" viewBox="0 0 2550 3300" shape-rendering="geometricPrecision"><rect width="100%" height="100%" fill="white"/><path fill="#000000" fill-rule="evenodd" d="M 1171.401 3077.529 C 1200.265 3070.999 1225.060 3055.943 1243.640 3033.665 C 1258.940 3015.321 1260.777 3014.865 1271.500 3026.745 C 1308.303 3067.518 1336.902 3081.088 1383.000 3079.650 C 1491.139 3076.277 1555.440 2955.852 1496.010 2868.000 C 1485.319 2852.197 1486.286 2848.672 1503.141 2842.007 C 1582.549 2810.605 1613.872 2716.982 1570.914 2639.438 C 1538.364 2580.682 1478.734 2557.633 1413.205 2578.477 C 1396.666 2583.738 1394.228 2581.738 1392.980 2561.892 C 1388.577 2491.832 1338.424 2442.461 1268.500 2439.355 C 1192.214 2435.965 1132.569 2486.570 1127.085 2559.336 C 1125.718 2577.470 1123.195 2580.535 1112.124 2577.508 C 1109.031 2576.662 1102.308 2574.858 1097.184 2573.500 C 1012.480 2551.052 932.485 2618.572 932.504 2712.500 C 932.516 2771.080 963.398 2817.765 1016.220 2839.056 C 1035.647 2846.886 1036.266 2848.791 1025.002 2866.065 C 973.963 2944.340 1014.134 3047.780 1106.000 3074.634 C 1124.804 3080.130 1154.157 3081.430 1171.401 3077.529 Z M 1363.814 3049.992 C 1321.468 3043.256 1291.277 3016.310 1275.644 2971.297 C 1269.980 2954.991 1267.723 2951.972 1261.047 2951.782 C 1253.855 2951.578 1251.008 2955.182 1245.587 2971.354 C 1233.501 3007.408 1212.536 3030.827 1181.500 3042.945 C 1121.438 3066.397 1052.000 3029.094 1035.479 2964.500 C 1024.231 2920.524 1042.896 2874.665 1083.206 2847.242 C 1106.150 2831.634 1103.752 2820.366 1077.577 2820.791 C 995.349 2822.127 942.083 2751.734 967.507 2675.329 C 994.612 2593.871 1083.327 2573.023 1143.738 2633.914 C 1152.643 2642.890 1155.252 2644.957 1158.434 2645.554 C 1169.854 2647.696 1174.387 2637.969 1168.535 2623.880 C 1167.077 2620.371 1164.559 2614.270 1162.938 2610.322 C 1137.870 2549.263 1172.626 2484.573 1237.500 2471.543 C 1326.639 2453.640 1390.152 2532.554 1355.777 2618.500 C 1349.569 2634.022 1350.421 2642.640 1358.429 2645.310 C 1363.782 2647.094 1368.066 2644.702 1380.539 2632.963 C 1448.439 2569.062 1542.093 2601.763 1558.521 2695.109 C 1565.656 2735.655 1546.173 2782.203 1513.000 2803.860 C 1492.644 2817.151 1478.355 2821.223 1450.893 2821.560 C 1429.151 2821.827 1426.347 2822.495 1423.454 2828.090 C 1420.232 2834.320 1423.309 2839.474 1434.854 2847.188 C 1494.128 2886.796 1506.235 2958.483 1462.559 3011.233 C 1440.174 3038.268 1396.898 3055.255 1363.814 3049.992 Z M 1284.500 2899.386 C 1377.328 2882.255 1413.681 2764.513 1347.000 2696.955 C 1293.741 2642.995 1210.979 2650.165 1164.224 2712.790 C 1100.119 2798.651 1177.749 2919.085 1284.500 2899.386 Z M 1245.000 2871.052 C 1175.599 2856.300 1147.452 2778.457 1191.705 2723.663 C 1233.396 2672.041 1313.974 2681.791 1343.660 2742.049 C 1376.169 2808.039 1316.375 2886.224 1245.000 2871.052 Z M 1323.000 2413.125 C 1328.225 2412.588 1338.350 2411.633 1345.500 2411.004 C 1634.392 2385.571 1836.091 2204.903 1854.586 1955.000 C 1867.555 1779.768 1806.240 1638.027 1680.712 1553.057 C 1662.195 1540.523 1662.057 1541.115 1689.947 1513.220 C 1734.251 1468.907 1759.931 1427.265 1778.885 1369.000 C 1808.838 1276.928 1804.773 1156.809 1768.568 1064.109 C 1685.385 851.126 1469.420 734.484 1202.000 758.107 C 988.203 776.993 805.448 920.105 744.122 1116.663 C 708.078 1232.188 726.503 1301.689 799.607 1325.950 C 843.372 1340.475 999.350 1353.972 1038.500 1346.623 C 1063.404 1341.947 1081.842 1331.887 1098.431 1313.922 C 1108.775 1302.720 1112.940 1295.123 1125.430 1264.679 C 1153.537 1196.169 1208.189 1166.034 1277.190 1181.000 C 1364.560 1199.951 1379.831 1319.960 1300.751 1366.146 C 1280.883 1377.749 1262.869 1382.557 1222.500 1387.031 C 1173.096 1392.506 1150.445 1402.447 1130.388 1427.458 C 1108.921 1454.227 1104.287 1477.517 1103.316 1563.500 C 1102.275 1655.610 1108.396 1684.083 1135.431 1712.904 C 1156.952 1735.846 1176.694 1743.203 1227.000 1747.031 C 1329.068 1754.798 1380.678 1791.414 1392.527 1864.470 C 1408.076 1960.335 1328.189 2031.564 1222.500 2016.069 C 1155.750 2006.282 1118.557 1972.664 1092.431 1898.500 C 1068.084 1829.386 1028.824 1804.366 954.989 1810.910 C 859.134 1819.407 780.007 1839.134 744.542 1863.377 C 706.162 1889.613 692.219 1921.279 693.266 1979.835 C 695.616 2111.208 780.521 2243.950 914.500 2325.715 C 997.328 2376.263 1095.268 2405.334 1208.500 2412.981 C 1217.300 2413.575 1226.075 2414.232 1228.000 2414.441 C 1234.799 2415.180 1313.631 2414.087 1323.000 2413.125 Z M 1237.500 2376.408 C 1235.300 2376.188 1223.375 2375.309 1211.000 2374.455 C 1023.854 2361.532 868.671 2279.446 788.484 2150.960 C 740.056 2073.363 718.007 1976.014 738.268 1929.259 C 752.713 1895.928 778.265 1881.636 851.169 1866.115 C 996.917 1835.085 1035.344 1843.764 1056.551 1912.500 C 1085.498 2006.326 1147.723 2053.832 1244.149 2055.723 C 1314.134 2057.096 1362.558 2037.076 1397.953 1992.138 C 1442.739 1935.275 1445.473 1847.785 1404.311 1788.708 C 1368.853 1737.820 1323.660 1717.127 1230.364 1709.064 C 1152.748 1702.356 1141.091 1683.424 1141.019 1563.950 C 1140.951 1451.553 1153.826 1432.361 1234.885 1424.031 C 1335.114 1413.731 1390.482 1360.699 1390.482 1275.000 C 1390.482 1192.359 1334.820 1139.620 1247.500 1139.527 C 1170.238 1139.444 1119.416 1175.417 1088.891 1251.795 C 1067.725 1304.756 1046.797 1315.146 972.500 1309.580 C 809.936 1297.401 781.215 1288.280 768.625 1244.834 C 752.693 1189.856 790.935 1071.447 850.443 991.502 C 976.050 822.754 1212.008 752.112 1434.989 816.497 C 1602.845 864.964 1717.312 982.950 1750.829 1142.045 C 1784.013 1299.554 1732.044 1447.767 1617.099 1523.435 C 1589.044 1541.904 1589.633 1549.886 1620.120 1564.338 C 1722.466 1612.853 1789.536 1705.147 1809.908 1825.500 C 1856.834 2102.743 1686.255 2319.579 1384.000 2366.903 C 1336.703 2374.308 1263.810 2379.038 1237.500 2376.408 Z M 2055.500 918.171 C 2150.090 897.862 2198.017 800.508 2155.520 715.000 C 2148.259 700.390 2149.799 697.627 2167.748 693.058 C 2220.030 679.749 2260.232 638.051 2270.700 586.275 C 2273.602 571.922 2273.250 533.690 2270.100 521.000 C 2250.996 444.060 2190.443 402.894 2112.237 413.680 C 2094.192 416.168 2092.705 414.659 2094.321 395.500 C 2102.013 304.271 2040.979 235.928 1951.500 235.575 C 1877.948 235.285 1822.266 280.097 1809.464 349.884 C 1805.697 370.418 1803.360 372.108 1787.952 365.439 C 1740.282 344.806 1692.711 347.701 1653.759 373.604 C 1587.406 417.729 1566.870 511.901 1609.691 575.683 C 1624.344 597.509 1638.352 609.628 1668.838 626.852 C 1678.646 632.393 1679.192 636.168 1671.496 645.230 C 1639.262 683.188 1629.990 707.431 1631.288 750.354 C 1634.233 847.703 1738.314 916.218 1829.576 880.885 C 1846.031 874.515 1858.573 866.204 1874.015 851.437 C 1889.290 836.830 1892.813 836.623 1901.125 849.846 C 1936.074 905.442 1994.450 931.279 2055.500 918.171 Z M 567.683 918.450 C 609.166 912.290 639.699 892.330 665.506 854.500 C 679.185 834.449 679.418 834.423 696.500 851.032 C 754.516 907.439 841.757 906.374 899.548 848.554 C 953.713 794.362 958.147 718.092 910.577 658.833 C 896.525 641.330 896.765 639.637 914.561 630.708 C 995.636 590.028 1017.996 484.991 961.511 410.164 C 919.926 355.077 858.154 339.492 792.500 367.522 C 773.854 375.483 772.111 374.543 769.562 355.141 C 756.544 256.060 653.095 204.312 559.500 250.063 C 509.864 274.326 482.882 318.517 482.443 376.268 C 482.220 405.502 483.872 404.281 451.000 399.508 C 379.137 389.074 308.958 447.528 299.910 525.355 C 291.083 601.280 331.895 663.018 404.805 684.035 C 422.578 689.158 423.669 691.738 414.722 707.500 C 390.784 749.671 390.760 802.242 414.659 843.500 C 438.770 885.125 481.240 912.919 530.500 919.311 C 538.218 920.313 558.266 919.848 567.683 918.450 Z M 2014.324 890.905 C 1961.124 885.955 1922.327 848.220 1912.121 791.500 C 1909.055 774.459 1906.900 771.000 1899.348 771.000 C 1892.830 771.000 1889.320 774.738 1882.190 789.270 C 1864.933 824.439 1844.720 843.294 1812.000 854.746 C 1731.325 882.983 1643.213 801.318 1664.369 717.918 C 1673.386 682.372 1694.066 657.871 1730.904 639.090 C 1748.467 630.136 1752.828 623.703 1746.465 616.141 C 1743.572 612.702 1740.725 611.969 1720.861 609.543 C 1652.484 601.192 1607.052 543.063 1619.616 480.000 C 1639.905 378.152 1755.902 347.531 1818.539 427.487 C 1831.233 443.691 1837.566 446.634 1844.600 439.600 C 1849.301 434.899 1849.264 429.102 1844.440 414.946 C 1833.136 381.771 1833.845 357.331 1846.923 329.422 C 1886.176 245.660 2011.615 244.492 2053.239 327.500 C 2072.156 365.226 2069.884 400.082 2045.680 443.477 C 2037.575 458.009 2036.715 463.869 2041.923 469.077 C 2047.199 474.353 2052.989 473.126 2067.751 463.606 C 2147.090 412.439 2234.029 453.942 2243.490 547.500 C 2244.199 554.515 2242.070 571.975 2239.076 583.703 C 2224.222 641.879 2168.470 676.500 2109.640 664.081 C 2079.765 657.775 2073.779 670.505 2097.369 690.179 C 2146.430 731.096 2155.030 795.696 2117.966 844.885 C 2094.922 875.467 2052.214 894.430 2014.324 890.905 Z M 531.000 888.532 C 423.583 870.667 391.368 749.537 475.841 681.128 C 487.487 671.698 490.043 667.432 487.581 661.540 C 484.819 654.930 478.541 653.709 462.500 656.664 C 382.004 671.491 314.484 600.891 331.554 519.745 C 349.319 435.291 440.129 401.480 507.751 454.142 C 525.309 467.816 531.306 469.848 537.077 464.077 C 539.547 461.606 540.000 460.360 540.000 456.027 C 540.000 450.333 539.459 449.096 530.284 433.799 C 509.199 398.649 506.031 366.052 520.457 332.684 C 555.564 251.484 677.201 239.852 722.851 313.331 C 743.210 346.101 746.508 378.754 733.364 417.401 C 729.794 427.897 730.107 434.307 734.400 438.600 C 740.545 444.745 746.344 442.817 757.631 430.876 C 783.926 403.057 804.835 390.867 835.381 385.547 C 918.202 371.122 987.829 466.507 953.155 546.890 C 934.755 589.549 900.375 612.689 850.601 615.917 C 822.265 617.755 819.475 630.269 844.488 643.332 C 920.166 682.854 935.880 769.352 877.877 827.121 C 817.272 887.481 724.456 868.646 689.343 788.862 C 681.559 771.174 676.525 767.092 667.960 771.521 C 663.782 773.681 661.632 778.677 658.582 793.312 C 645.273 857.176 590.092 898.360 531.000 888.532 Z M 1945.448 718.009 C 2044.327 701.105 2083.214 578.450 2012.500 506.519 C 1942.475 435.289 1821.682 472.247 1800.881 571.266 C 1786.811 638.250 1835.401 708.021 1903.000 717.898 C 1907.125 718.501 1911.625 719.159 1913.000 719.361 C 1920.162 720.412 1935.010 719.793 1945.448 718.009 Z M 674.678 717.934 C 756.264 706.814 804.955 611.292 766.905 537.000 C 721.081 447.528 598.236 445.470 544.901 533.281 C 491.162 621.757 568.890 732.352 674.678 717.934 Z M 643.500 689.293 C 544.039 675.794 526.552 544.707 619.029 505.853 C 695.116 473.884 773.574 548.928 744.642 626.000 C 728.850 668.068 685.765 695.029 643.500 689.293 Z M 1906.113 688.455 C 1810.538 667.721 1800.579 539.591 1891.884 505.394 C 1969.358 476.377 2043.257 553.841 2011.709 631.000 C 1994.684 672.638 1948.652 697.684 1906.113 688.455 Z"/></svg>
