<svg xmlns="http://www.w3.org/2000/svg" width="2550" height="3300" viewBox="0 0 2550 3300" shape-rendering="geometricPrecision"><rect width="100%" height="100%" fill="white"/><path fill="#000000" fill-rule="evenodd" d="M 2187.168 3074.355 C 2203.131 3068.312 2216.268 3053.668 2219.529 3038.280 C 2221.675 3028.150 2221.703 271.983 2219.557 261.856 C 2216.236 246.187 2202.752 231.238 2187.000 225.760 C 2177.690 222.523 372.993 222.114 362.513 225.347 C 345.441 230.613 331.185 246.383 328.080 263.434 C 326.616 271.479 326.541 3029.267 328.005 3037.114 C 331.266 3054.584 348.864 3072.551 366.000 3075.904 C 377.605 3078.174 2181.130 3076.640 2187.168 3074.355 Z M 383.771 3030.802 C 378.258 3029.337 374.298 3024.307 373.536 3017.805 C 371.760 3002.639 373.479 278.538 375.267 275.267 C 376.239 273.489 378.489 271.239 380.267 270.267 C 385.395 267.464 2162.700 267.518 2167.838 270.321 C 2169.975 271.487 2171.865 273.702 2173.094 276.480 C 2175.655 282.270 2176.158 3018.859 2173.599 3023.808 C 2171.600 3027.673 2169.068 3029.646 2164.500 3030.895 C 2159.149 3032.358 389.279 3032.266 383.771 3030.802 Z"/></svg>
