<svg xmlns="http://www.w3.org/2000/svg" width="2550" height="3300" viewBox="0 0 2550 3300" shape-rendering="geometricPrecision"><rect width="100%" height="100%" fill="white"/><path fill="#000000" fill-rule="evenodd" d="M 1637.130 3142.978 C 1662.633 3128.039 1684.513 3114.707 1685.750 3113.352 C 1688.000 3110.888 1688.000 3110.888 1688.000 3054.000 C 1688.000 2997.112 1688.000 2997.112 1685.750 2994.650 C 1682.209 2990.775 1589.756 2938.000 1586.510 2938.000 C 1583.266 2938.000 1489.784 2990.841 1486.250 2994.672 C 1484.000 2997.112 1484.000 2997.112 1484.000 3054.000 C 1484.000 3110.888 1484.000 3110.888 1486.250 3113.346 C 1488.319 3115.606 1579.456 3169.113 1584.349 3170.941 C 1587.476 3172.109 1586.671 3172.536 1637.130 3142.978 Z M 1539.500 3135.090 C 1493.500 3108.267 1493.500 3108.267 1493.500 3053.997 C 1493.500 2999.727 1493.500 2999.727 1539.500 2973.392 C 1564.800 2958.908 1585.950 2947.064 1586.500 2947.073 C 1587.050 2947.082 1607.975 2958.932 1633.000 2973.408 C 1678.500 2999.727 1678.500 2999.727 1678.500 3054.010 C 1678.500 3108.293 1678.500 3108.293 1633.000 3135.098 C 1607.975 3149.841 1587.050 3161.905 1586.500 3161.908 C 1585.950 3161.911 1564.800 3149.843 1539.500 3135.090 Z M 457.972 3146.733 C 460.527 3144.078 497.932 3030.504 497.974 3025.273 C 498.006 3021.242 500.637 3023.323 442.692 2981.536 C 411.791 2959.251 396.011 2948.461 393.984 2948.230 C 391.412 2947.936 384.276 2952.676 343.743 2981.604 C 285.866 3022.911 287.993 3021.242 288.026 3025.317 C 288.068 3030.519 325.486 3144.092 328.028 3146.733 C 330.210 3149.000 330.210 3149.000 393.000 3149.000 C 455.790 3149.000 455.790 3149.000 457.972 3146.733 Z M 2186.144 3116.463 C 2210.540 3102.347 2231.512 3089.692 2232.750 3088.342 C 2235.000 3085.888 2235.000 3085.888 2235.000 3031.500 C 2235.000 2977.112 2235.000 2977.112 2232.750 2974.656 C 2229.142 2970.719 2140.732 2920.000 2137.477 2920.000 C 2134.198 2920.000 2044.810 2970.772 2041.250 2974.657 C 2039.000 2977.112 2039.000 2977.112 2039.000 3031.500 C 2039.000 3085.888 2039.000 3085.888 2041.250 3088.341 C 2043.310 3090.588 2130.216 3141.025 2135.294 3142.921 C 2138.463 3144.104 2137.600 3144.553 2186.144 3116.463 Z M 333.673 3139.258 C 333.422 3138.841 325.024 3113.317 315.011 3082.538 C 296.805 3026.577 296.805 3026.577 299.152 3024.664 C 305.186 3019.748 392.620 2957.680 393.500 2957.689 C 394.857 2957.701 488.134 3025.165 488.594 3026.467 C 488.795 3027.035 480.740 3052.700 470.695 3083.500 C 452.430 3139.500 452.430 3139.500 393.279 3139.758 C 360.746 3139.900 333.923 3139.675 333.673 3139.258 Z M 2092.500 3108.580 C 2048.500 3083.238 2048.500 3083.238 2048.500 3031.500 C 2048.500 2979.762 2048.500 2979.762 2092.500 2954.420 C 2116.700 2940.482 2136.950 2929.079 2137.500 2929.080 C 2138.050 2929.081 2158.075 2940.475 2182.000 2954.400 C 2225.500 2979.718 2225.500 2979.718 2225.500 3031.500 C 2225.500 3083.282 2225.500 3083.282 2182.000 3108.600 C 2158.075 3122.525 2138.050 3133.919 2137.500 3133.920 C 2136.950 3133.921 2116.700 3122.518 2092.500 3108.580 Z M 1613.407 3104.750 C 1627.751 3096.363 1640.278 3088.713 1641.244 3087.750 C 1642.845 3086.155 1643.000 3083.211 1643.000 3054.500 C 1643.000 3025.789 1642.845 3022.845 1641.244 3021.250 C 1636.242 3016.266 1586.844 2988.750 1584.687 2989.747 C 1578.496 2992.610 1531.323 3020.336 1530.250 3021.743 C 1529.312 3022.973 1529.000 3031.147 1529.000 3054.500 C 1529.000 3077.852 1529.312 3086.027 1530.250 3087.259 C 1531.528 3088.937 1584.758 3119.952 1586.413 3119.983 C 1586.915 3119.992 1599.062 3113.137 1613.407 3104.750 Z M 1011.728 3093.436 C 1031.403 3082.090 1048.513 3071.700 1049.750 3070.347 C 1052.647 3067.181 1053.368 2981.398 1050.532 2977.349 C 1048.290 2974.148 974.859 2932.000 971.524 2932.000 C 968.266 2932.000 895.776 2972.849 892.250 2976.672 C 890.000 2979.112 890.000 2979.112 890.000 3023.500 C 890.000 3067.888 890.000 3067.888 892.250 3070.328 C 894.227 3072.472 966.122 3113.996 970.000 3115.234 C 972.420 3116.007 974.243 3115.054 1011.728 3093.436 Z M 1561.245 3098.050 C 1536.000 3083.531 1536.000 3083.531 1536.000 3054.500 C 1536.000 3025.469 1536.000 3025.469 1561.245 3010.950 C 1586.490 2996.430 1586.490 2996.430 1611.245 3010.941 C 1636.000 3025.452 1636.000 3025.452 1636.000 3054.500 C 1636.000 3083.548 1636.000 3083.548 1611.245 3098.059 C 1586.490 3112.570 1586.490 3112.570 1561.245 3098.050 Z M 935.000 3085.607 C 899.500 3065.269 899.500 3065.269 899.500 3023.500 C 899.500 2981.731 899.500 2981.731 935.000 2961.393 C 954.525 2950.207 970.950 2941.062 971.500 2941.071 C 972.050 2941.080 988.250 2950.237 1007.500 2961.421 C 1042.500 2981.754 1042.500 2981.754 1042.500 3023.500 C 1042.500 3065.246 1042.500 3065.246 1007.500 3085.579 C 988.250 3096.763 972.050 3105.920 971.500 3105.929 C 970.950 3105.938 954.525 3096.793 935.000 3085.607 Z M 2163.399 3079.250 C 2177.200 3071.137 2189.281 3063.713 2190.246 3062.750 C 2192.933 3060.069 2192.928 3001.928 2190.240 2999.240 C 2185.556 2994.556 2137.813 2968.764 2135.656 2969.752 C 2128.893 2972.849 2084.296 2998.371 2083.250 2999.743 C 2082.315 3000.969 2082.000 3008.847 2082.000 3031.000 C 2082.000 3053.142 2082.316 3061.037 2083.250 3062.278 C 2084.517 3063.960 2135.740 3093.949 2137.404 3093.982 C 2137.901 3093.992 2149.599 3087.363 2163.399 3079.250 Z M 401.509 3086.454 C 408.761 3084.346 422.834 3073.069 418.318 3072.985 C 417.868 3072.976 418.095 3072.592 418.822 3072.131 C 419.550 3071.670 420.597 3069.539 421.151 3067.396 C 423.148 3059.663 421.815 3046.766 418.822 3044.869 C 418.095 3044.408 417.868 3044.024 418.318 3044.015 C 419.864 3043.986 414.734 3037.820 410.782 3034.957 C 398.103 3025.772 378.837 3028.590 370.063 3040.911 C 368.854 3042.610 368.232 3044.007 368.682 3044.015 C 369.132 3044.024 368.905 3044.408 368.178 3044.869 C 367.450 3045.330 366.403 3047.461 365.849 3049.604 C 363.852 3057.337 365.185 3070.234 368.178 3072.131 C 368.905 3072.592 369.132 3072.976 368.682 3072.985 C 367.279 3073.011 371.968 3078.874 375.620 3081.660 C 383.060 3087.334 392.482 3089.079 401.509 3086.454 Z M 2113.250 3072.540 C 2089.000 3058.544 2089.000 3058.544 2089.000 3031.021 C 2089.000 3003.499 2089.000 3003.499 2113.226 2989.969 C 2137.451 2976.438 2137.451 2976.438 2161.226 2989.938 C 2185.000 3003.437 2185.000 3003.437 2185.000 3031.003 C 2185.000 3058.570 2185.000 3058.570 2161.250 3072.553 C 2137.500 3086.537 2137.500 3086.537 2113.250 3072.540 Z M 386.764 3080.064 C 362.083 3072.095 367.587 3036.500 393.500 3036.500 C 422.377 3036.500 424.052 3078.671 395.250 3080.568 C 392.088 3080.777 388.269 3080.550 386.764 3080.064 Z M 992.372 3063.283 C 1018.921 3047.777 1016.000 3052.695 1016.000 3023.500 C 1016.000 3001.329 1015.831 2998.831 1014.217 2997.217 C 1011.031 2994.031 972.007 2971.783 970.571 2972.334 C 966.714 2973.814 928.329 2996.328 927.250 2997.743 C 926.330 2998.950 926.000 3005.747 926.000 3023.500 C 926.000 3041.252 926.330 3048.051 927.250 3049.259 C 928.515 3050.920 969.734 3074.925 971.405 3074.974 C 971.902 3074.988 981.338 3069.727 992.372 3063.283 Z M 952.233 3056.567 C 933.000 3045.581 933.000 3045.581 933.000 3023.500 C 933.000 3001.419 933.000 3001.419 952.233 2990.433 C 971.467 2979.448 971.467 2979.448 990.233 2990.449 C 1009.000 3001.450 1009.000 3001.450 1009.000 3023.500 C 1009.000 3045.550 1009.000 3045.550 990.233 3056.551 C 971.467 3067.552 971.467 3067.552 952.233 3056.567 Z M 477.750 2832.766 C 528.519 2781.948 536.000 2774.080 536.000 2771.498 C 536.000 2766.459 419.564 2650.600 414.500 2650.600 C 409.436 2650.600 293.000 2766.459 293.000 2771.498 C 293.000 2774.596 406.053 2889.385 412.000 2892.326 C 416.131 2894.368 416.939 2893.635 477.750 2832.766 Z M 358.747 2827.247 C 303.000 2771.493 303.000 2771.493 358.753 2715.747 C 414.507 2660.000 414.507 2660.000 470.253 2715.753 C 526.000 2771.507 526.000 2771.507 470.247 2827.253 C 414.493 2883.000 414.493 2883.000 358.747 2827.247 Z M 2220.250 2819.264 C 2265.241 2774.222 2272.000 2767.069 2272.000 2764.497 C 2272.000 2759.466 2168.559 2656.600 2163.500 2656.600 C 2158.441 2656.600 2055.000 2759.466 2055.000 2764.497 C 2055.000 2767.594 2155.080 2869.400 2161.000 2872.326 C 2165.115 2874.360 2166.087 2873.489 2220.250 2819.264 Z M 2114.246 2813.746 C 2065.000 2764.492 2065.000 2764.492 2114.254 2715.246 C 2163.508 2666.000 2163.508 2666.000 2212.754 2715.254 C 2262.000 2764.508 2262.000 2764.508 2212.746 2813.754 C 2163.492 2863.000 2163.492 2863.000 2114.246 2813.746 Z M 1631.250 2806.262 C 1670.908 2766.550 1677.000 2760.056 1677.000 2757.497 C 1677.000 2752.475 1585.553 2661.600 1580.500 2661.600 C 1575.447 2661.600 1484.000 2752.475 1484.000 2757.497 C 1484.000 2760.592 1572.111 2850.418 1578.000 2853.327 C 1582.097 2855.350 1583.223 2854.355 1631.250 2806.262 Z M 1537.246 2800.746 C 1494.000 2757.491 1494.000 2757.491 1537.254 2714.246 C 1580.509 2671.000 1580.509 2671.000 1623.754 2714.254 C 1667.000 2757.509 1667.000 2757.509 1623.746 2800.754 C 1580.491 2844.000 1580.491 2844.000 1537.246 2800.746 Z M 1062.087 2840.718 C 1064.726 2838.692 1065.172 2837.437 1083.898 2779.352 C 1104.384 2715.812 1103.842 2718.499 1097.216 2713.273 C 1071.091 2692.669 1001.531 2643.500 998.507 2643.500 C 995.473 2643.500 923.342 2693.975 898.799 2713.273 C 892.155 2718.497 891.611 2715.795 912.102 2779.352 C 930.828 2837.437 931.274 2838.692 933.913 2840.718 C 936.210 2842.482 1059.790 2842.482 1062.087 2840.718 Z M 938.676 2832.258 C 935.714 2827.292 903.082 2721.495 904.181 2720.425 C 906.885 2717.793 997.539 2652.696 998.500 2652.697 C 999.846 2652.698 1092.126 2720.140 1092.588 2721.460 C 1092.789 2722.032 1084.958 2747.250 1075.188 2777.500 C 1057.422 2832.500 1057.422 2832.500 998.275 2832.758 C 965.744 2832.900 938.924 2832.675 938.676 2832.258 Z M 422.282 2802.655 C 424.052 2801.916 425.950 2801.193 426.500 2801.048 C 432.301 2799.524 441.377 2791.328 442.583 2786.525 C 442.932 2785.136 443.561 2784.000 443.981 2784.000 C 444.958 2784.000 446.332 2776.693 446.332 2771.500 C 446.332 2766.307 444.958 2759.000 443.981 2759.000 C 443.561 2759.000 442.932 2757.864 442.583 2756.475 C 441.416 2751.825 430.945 2742.371 426.000 2741.503 C 425.725 2741.454 423.925 2740.896 422.000 2740.262 C 420.075 2739.628 416.700 2739.110 414.500 2739.110 C 412.300 2739.110 408.925 2739.628 407.000 2740.262 C 405.075 2740.896 403.275 2741.454 403.000 2741.503 C 398.055 2742.371 387.584 2751.825 386.417 2756.475 C 386.068 2757.864 385.439 2759.000 385.019 2759.000 C 384.042 2759.000 382.668 2766.307 382.668 2771.500 C 382.668 2776.693 384.042 2784.000 385.019 2784.000 C 385.439 2784.000 386.068 2785.136 386.417 2786.525 C 387.594 2791.214 397.129 2799.901 402.233 2800.934 C 402.636 2801.015 404.436 2801.721 406.233 2802.502 C 410.402 2804.314 418.137 2804.388 422.282 2802.655 Z M 405.437 2795.400 C 387.729 2789.115 383.259 2765.699 397.301 2752.786 C 411.958 2739.308 434.949 2746.776 439.519 2766.500 C 443.932 2785.547 424.382 2802.124 405.437 2795.400 Z M 2171.509 2792.454 C 2178.761 2790.346 2192.834 2779.069 2188.318 2778.985 C 2187.868 2778.976 2188.095 2778.592 2188.822 2778.131 C 2189.550 2777.670 2190.597 2775.539 2191.151 2773.396 C 2193.148 2765.663 2191.815 2752.766 2188.822 2750.869 C 2188.095 2750.408 2187.868 2750.024 2188.318 2750.015 C 2189.864 2749.986 2184.734 2743.820 2180.782 2740.957 C 2168.103 2731.772 2148.837 2734.590 2140.063 2746.911 C 2138.854 2748.610 2138.232 2750.007 2138.682 2750.015 C 2139.132 2750.024 2138.905 2750.408 2138.178 2750.869 C 2137.450 2751.330 2136.403 2753.461 2135.849 2755.604 C 2133.852 2763.337 2135.185 2776.234 2138.178 2778.131 C 2138.905 2778.592 2139.132 2778.976 2138.682 2778.985 C 2137.279 2779.011 2141.968 2784.874 2145.620 2787.660 C 2153.060 2793.334 2162.482 2795.079 2171.509 2792.454 Z M 2156.764 2786.064 C 2132.083 2778.095 2137.587 2742.500 2163.500 2742.500 C 2192.377 2742.500 2194.052 2784.671 2165.250 2786.568 C 2162.088 2786.777 2158.269 2786.550 2156.764 2786.064 Z M 1587.652 2782.712 C 1616.497 2775.214 1610.396 2731.691 1580.500 2731.691 C 1552.833 2731.691 1544.361 2768.430 1569.116 2781.059 C 1571.252 2782.149 1573.000 2782.784 1573.000 2782.471 C 1573.000 2782.157 1573.787 2782.380 1574.750 2782.965 C 1576.442 2783.994 1583.233 2783.861 1587.652 2782.712 Z M 1006.509 2780.454 C 1013.761 2778.346 1027.834 2767.069 1023.318 2766.985 C 1022.868 2766.976 1023.095 2766.592 1023.822 2766.131 C 1024.550 2765.670 1025.597 2763.539 1026.151 2761.396 C 1028.148 2753.663 1026.815 2740.766 1023.822 2738.869 C 1023.095 2738.408 1022.868 2738.024 1023.318 2738.015 C 1024.864 2737.986 1019.734 2731.820 1015.782 2728.957 C 1003.103 2719.772 983.837 2722.590 975.063 2734.911 C 973.854 2736.610 973.232 2738.007 973.682 2738.015 C 974.132 2738.024 973.905 2738.408 973.178 2738.869 C 972.450 2739.330 971.403 2741.461 970.849 2743.604 C 968.852 2751.337 970.185 2764.234 973.178 2766.131 C 973.905 2766.592 974.132 2766.976 973.682 2766.985 C 972.279 2767.011 976.968 2772.874 980.620 2775.660 C 988.060 2781.334 997.482 2783.079 1006.509 2780.454 Z M 1572.500 2775.341 C 1556.863 2767.112 1556.973 2747.547 1572.700 2739.614 C 1584.552 2733.636 1600.139 2743.797 1600.139 2757.500 C 1600.139 2771.222 1584.211 2781.504 1572.500 2775.341 Z M 991.764 2774.064 C 967.083 2766.095 972.587 2730.500 998.500 2730.500 C 1027.377 2730.500 1029.052 2772.671 1000.250 2774.568 C 997.088 2774.777 993.269 2774.550 991.764 2774.064 Z M 2186.750 2549.765 C 2233.075 2503.389 2240.000 2496.071 2240.000 2493.497 C 2240.000 2488.465 2133.560 2382.600 2128.500 2382.600 C 2123.440 2382.600 2017.000 2488.465 2017.000 2493.497 C 2017.000 2496.594 2120.073 2601.397 2126.000 2604.326 C 2130.119 2606.362 2131.053 2605.523 2186.750 2549.765 Z M 995.566 2596.928 C 1092.594 2583.432 1124.927 2459.594 1046.719 2401.007 C 979.834 2350.903 883.331 2392.359 872.982 2475.642 C 864.321 2545.347 926.204 2606.575 995.566 2596.928 Z M 2077.746 2544.246 C 2027.000 2493.493 2027.000 2493.493 2077.754 2442.746 C 2128.507 2392.000 2128.507 2392.000 2179.254 2442.754 C 2230.000 2493.507 2230.000 2493.507 2179.246 2544.254 C 2128.493 2595.000 2128.493 2595.000 2077.746 2544.246 Z M 963.951 2587.453 C 886.079 2573.348 854.022 2478.046 907.711 2420.260 C 959.474 2364.548 1052.487 2384.530 1076.582 2456.540 C 1100.726 2528.693 1038.547 2600.965 963.951 2587.453 Z M 1616.750 2523.764 C 1662.186 2478.277 1669.000 2471.070 1669.000 2468.497 C 1669.000 2463.466 1564.559 2359.600 1559.500 2359.600 C 1554.441 2359.600 1450.000 2463.466 1450.000 2468.497 C 1450.000 2471.594 1551.077 2574.399 1557.000 2577.326 C 1561.116 2579.361 1562.076 2578.500 1616.750 2523.764 Z M 1509.746 2518.246 C 1460.000 2468.493 1460.000 2468.493 1509.754 2418.746 C 1559.507 2369.000 1559.507 2369.000 1609.254 2418.754 C 1659.000 2468.507 1659.000 2468.507 1609.246 2518.254 C 1559.493 2568.000 1559.493 2568.000 1509.746 2518.246 Z M 496.956 2553.750 C 499.515 2551.091 537.951 2435.406 537.981 2430.273 C 538.005 2426.272 541.287 2428.888 481.174 2385.000 C 440.981 2355.656 433.410 2350.500 430.510 2350.500 C 427.620 2350.500 419.832 2355.752 379.352 2385.000 C 319.024 2428.589 321.995 2426.242 322.019 2430.273 C 322.049 2435.406 360.485 2551.091 363.044 2553.750 C 366.464 2557.303 493.536 2557.303 496.956 2553.750 Z M 368.679 2546.258 C 365.587 2541.028 331.064 2431.513 332.170 2430.438 C 334.901 2427.781 429.540 2359.691 430.500 2359.693 C 431.835 2359.695 528.129 2430.151 528.599 2431.470 C 528.801 2432.036 520.514 2458.150 510.185 2489.500 C 491.403 2546.500 491.403 2546.500 430.265 2546.758 C 396.639 2546.899 368.926 2546.674 368.679 2546.258 Z M 993.636 2524.684 C 1029.483 2511.557 1027.917 2462.534 991.305 2451.681 C 967.467 2444.614 942.691 2464.207 943.479 2489.500 C 944.278 2515.122 970.163 2533.279 993.636 2524.684 Z M 2136.000 2522.845 C 2143.309 2520.871 2150.169 2515.386 2154.838 2507.785 C 2163.169 2494.222 2156.883 2473.984 2142.108 2466.800 C 2118.587 2455.364 2093.712 2475.394 2099.281 2501.285 C 2101.138 2509.916 2112.737 2521.407 2120.842 2522.645 C 2121.580 2522.758 2122.476 2523.143 2122.835 2523.502 C 2123.468 2524.135 2132.983 2523.660 2136.000 2522.845 Z M 969.500 2517.502 C 948.796 2509.046 943.502 2482.279 959.391 2466.391 C 975.487 2450.295 1003.032 2456.127 1010.859 2477.288 C 1020.430 2503.162 994.979 2527.909 969.500 2517.502 Z M 2120.750 2515.961 C 2119.787 2515.378 2119.000 2515.166 2119.000 2515.490 C 2119.000 2515.814 2118.438 2515.618 2117.750 2515.055 C 2117.062 2514.491 2115.015 2512.840 2113.201 2511.385 C 2100.477 2501.182 2102.506 2482.867 2117.539 2472.235 C 2119.528 2470.828 2121.542 2470.512 2128.500 2470.512 C 2137.492 2470.512 2137.393 2470.479 2143.799 2475.615 C 2156.523 2485.818 2154.494 2504.133 2139.461 2514.765 C 2136.651 2516.752 2123.449 2517.596 2120.750 2515.961 Z M 1567.509 2496.454 C 1574.761 2494.346 1588.834 2483.069 1584.318 2482.985 C 1583.868 2482.976 1584.095 2482.592 1584.822 2482.131 C 1585.550 2481.670 1586.597 2479.539 1587.151 2477.396 C 1589.148 2469.663 1587.815 2456.766 1584.822 2454.869 C 1584.095 2454.408 1583.868 2454.024 1584.318 2454.015 C 1585.864 2453.986 1580.734 2447.820 1576.782 2444.957 C 1564.103 2435.772 1544.837 2438.590 1536.063 2450.911 C 1534.854 2452.610 1534.232 2454.007 1534.682 2454.015 C 1535.132 2454.024 1534.905 2454.408 1534.178 2454.869 C 1533.450 2455.330 1532.403 2457.461 1531.849 2459.604 C 1529.852 2467.337 1531.185 2480.234 1534.178 2482.131 C 1534.905 2482.592 1535.132 2482.976 1534.682 2482.985 C 1533.279 2483.011 1537.968 2488.874 1541.620 2491.660 C 1549.060 2497.334 1558.482 2499.079 1567.509 2496.454 Z M 438.000 2492.845 C 456.552 2487.833 466.461 2464.882 456.838 2449.215 C 438.130 2418.758 393.773 2436.379 401.281 2471.285 C 403.138 2479.916 414.737 2491.407 422.842 2492.645 C 423.580 2492.758 424.476 2493.143 424.835 2493.502 C 425.468 2494.135 434.983 2493.660 438.000 2492.845 Z M 1552.764 2490.064 C 1528.083 2482.095 1533.587 2446.500 1559.500 2446.500 C 1588.377 2446.500 1590.052 2488.671 1561.250 2490.568 C 1558.088 2490.777 1554.269 2490.550 1552.764 2490.064 Z M 422.750 2485.961 C 421.788 2485.378 421.000 2485.166 421.000 2485.490 C 421.000 2485.814 420.438 2485.618 419.750 2485.055 C 419.062 2484.491 417.015 2482.840 415.201 2481.385 C 404.356 2472.689 404.356 2454.311 415.201 2445.615 C 421.607 2440.479 421.508 2440.512 430.500 2440.512 C 439.492 2440.512 439.393 2440.479 445.799 2445.615 C 458.523 2455.818 456.494 2474.133 441.461 2484.765 C 438.651 2486.752 425.449 2487.596 422.750 2485.961 Z M 1345.500 2312.533 C 1496.856 2299.597 1633.203 2256.636 1756.000 2183.190 C 1966.920 2057.036 2130.105 1836.949 2189.088 1599.085 C 2198.842 1559.746 2195.999 1563.994 2228.000 1540.946 C 2264.965 1514.322 2308.449 1476.905 2327.977 1454.918 C 2332.089 1450.288 2337.987 1443.741 2341.082 1440.369 C 2405.532 1370.151 2440.754 1275.369 2429.533 1202.346 C 2410.566 1078.911 2326.505 996.644 2171.208 949.536 C 2150.646 943.298 2149.170 941.999 2141.904 923.755 C 2085.533 782.199 1980.327 640.026 1865.000 549.549 C 1780.201 483.023 1703.417 440.288 1605.500 405.123 C 1533.257 379.177 1451.945 361.665 1367.500 353.865 C 1337.888 351.130 1229.819 350.435 1204.500 352.817 C 1148.664 358.071 1133.320 360.091 1099.500 366.644 C 904.879 404.353 744.737 487.238 611.157 619.395 C 451.801 777.055 361.970 971.061 340.003 1205.000 C 338.148 1224.752 337.000 1226.637 319.221 1239.130 C 154.171 1355.110 93.328 1481.256 140.585 1609.500 C 177.760 1710.383 277.972 1784.477 443.500 1833.467 C 479.145 1844.017 476.306 1841.988 492.552 1868.500 C 642.709 2113.538 885.600 2270.555 1173.000 2308.378 C 1180.717 2309.394 1208.776 2311.845 1225.500 2312.964 C 1234.300 2313.554 1243.525 2314.203 1246.000 2314.407 C 1257.584 2315.364 1327.860 2314.040 1345.500 2312.533 Z M 1227.000 2275.437 C 980.426 2258.966 741.941 2134.276 589.676 1942.217 C 574.630 1923.240 568.997 1915.540 555.863 1896.000 C 530.307 1857.979 531.221 1856.323 573.834 1863.462 C 674.649 1880.352 751.169 1886.933 889.000 1890.568 C 916.170 1891.284 1023.478 1889.510 1048.500 1887.931 C 1057.300 1887.375 1075.300 1886.261 1088.500 1885.454 C 1269.170 1874.417 1472.059 1841.112 1646.000 1793.940 C 1818.772 1747.086 1985.124 1682.672 2105.000 1616.211 C 2152.456 1589.900 2154.677 1591.843 2137.342 1644.500 C 2021.688 1995.824 1710.873 2244.646 1351.000 2274.002 C 1343.575 2274.608 1332.526 2275.530 1326.447 2276.052 C 1311.017 2277.376 1250.415 2277.001 1227.000 2275.437 Z M 1086.102 2186.152 C 1180.165 2166.714 1228.954 2069.183 1183.955 1990.537 C 1141.340 1916.055 1041.801 1888.058 963.231 1928.454 C 891.139 1965.521 867.116 2048.947 910.164 2112.743 C 948.397 2169.403 1020.854 2199.635 1086.102 2186.152 Z M 1036.000 2155.603 C 988.773 2148.278 950.724 2122.269 931.600 2084.237 C 891.459 2004.412 980.458 1920.217 1076.134 1947.506 C 1142.542 1966.447 1181.691 2026.812 1163.287 2081.890 C 1146.414 2132.385 1091.467 2164.206 1036.000 2155.603 Z M 1584.225 2063.584 C 1630.390 2054.751 1661.323 2002.993 1647.596 1957.549 C 1619.695 1865.181 1483.154 1886.787 1483.598 1983.500 C 1483.847 2037.809 1529.411 2074.072 1584.225 2063.584 Z M 1553.500 2031.108 C 1514.847 2019.837 1502.810 1974.695 1530.898 1946.344 C 1572.587 1904.266 1639.766 1951.788 1612.400 2004.000 C 1600.849 2026.040 1575.744 2037.594 1553.500 2031.108 Z M 874.000 1853.419 C 868.775 1853.239 851.225 1852.607 835.000 1852.015 C 605.188 1843.630 424.011 1803.883 305.000 1735.743 C 219.433 1686.752 168.957 1617.038 162.070 1538.339 C 156.169 1470.894 201.051 1384.266 274.329 1321.665 C 331.771 1272.593 335.679 1271.786 337.115 1308.693 C 340.051 1384.153 341.022 1376.585 326.120 1394.411 C 294.696 1432.001 284.407 1456.670 284.582 1494.000 C 285.034 1590.324 394.896 1657.555 606.559 1691.036 C 647.424 1697.500 700.256 1703.181 750.500 1706.515 C 854.872 1713.441 988.484 1711.741 1106.500 1701.985 C 1166.700 1697.008 1236.038 1689.221 1298.500 1680.422 C 1643.761 1631.785 1989.739 1510.155 2155.500 1379.140 C 2284.136 1277.468 2303.424 1176.232 2208.171 1102.699 C 2193.984 1091.748 2193.605 1091.038 2186.030 1061.344 C 2182.545 1047.680 2177.720 1029.525 2175.308 1021.000 C 2166.816 990.980 2169.030 988.466 2195.928 997.591 C 2254.604 1017.495 2318.632 1060.148 2347.911 1098.835 C 2414.118 1186.315 2409.081 1290.573 2333.833 1390.221 C 2285.130 1454.718 2220.217 1507.126 2111.500 1569.728 C 1837.203 1727.675 1420.048 1835.390 1018.255 1852.018 C 993.778 1853.031 891.570 1854.023 874.000 1853.419 Z M 823.500 1673.924 C 659.090 1666.297 538.978 1647.412 453.000 1615.669 C 416.281 1602.112 418.328 1604.510 408.014 1562.975 C 369.765 1408.940 363.505 1253.503 389.993 1115.485 C 403.560 1044.790 426.262 970.563 450.239 918.500 C 453.278 911.900 457.318 903.125 459.215 899.000 C 493.049 825.444 549.322 741.831 608.955 676.512 C 899.179 358.612 1404.966 294.618 1770.940 529.494 C 2012.357 684.432 2164.061 959.409 2178.065 1267.444 C 2179.834 1306.351 2179.467 1307.887 2165.158 1321.542 C 2049.034 1432.356 1784.815 1544.061 1486.357 1608.520 C 1440.028 1618.526 1420.038 1622.363 1351.500 1634.405 C 1300.317 1643.398 1206.247 1655.851 1154.500 1660.484 C 1145.150 1661.321 1135.925 1662.230 1134.000 1662.503 C 1117.432 1664.859 1031.154 1670.917 983.500 1673.071 C 953.333 1674.435 846.763 1675.003 823.500 1673.924 Z M 730.759 1565.410 C 844.660 1545.785 888.085 1393.113 803.075 1311.162 C 773.406 1282.560 745.572 1271.437 704.000 1271.568 C 602.145 1271.889 533.448 1375.980 570.938 1473.187 C 589.454 1521.197 633.510 1557.613 682.500 1565.402 C 700.184 1568.213 714.474 1568.216 730.759 1565.410 Z M 355.000 1561.615 C 318.007 1534.192 308.656 1476.795 336.092 1445.548 C 344.344 1436.149 346.034 1440.134 354.942 1490.000 C 358.234 1508.425 362.073 1529.098 363.474 1535.940 C 369.300 1564.391 367.225 1570.677 355.000 1561.615 Z M 693.500 1533.957 C 597.461 1519.066 559.958 1399.619 630.720 1334.000 C 697.707 1271.881 800.930 1312.308 814.558 1406.000 C 824.540 1474.632 758.831 1544.087 693.500 1533.957 Z M 1824.000 1474.496 C 1907.071 1459.470 1962.492 1371.296 1936.905 1294.868 C 1901.932 1190.408 1750.970 1176.285 1679.981 1270.832 C 1604.947 1370.766 1694.821 1497.862 1824.000 1474.496 Z M 1789.000 1445.400 C 1787.625 1445.183 1782.450 1444.503 1777.500 1443.889 C 1719.623 1436.710 1677.665 1387.324 1686.483 1336.760 C 1699.968 1259.431 1795.432 1214.867 1862.864 1254.423 C 1952.452 1306.975 1907.980 1436.870 1797.500 1445.335 C 1794.200 1445.588 1790.375 1445.617 1789.000 1445.400 Z M 1289.500 1324.490 C 1355.791 1310.684 1392.164 1232.059 1360.982 1169.972 C 1311.881 1072.206 1164.552 1105.631 1160.307 1215.500 C 1157.556 1286.666 1219.638 1339.038 1289.500 1324.490 Z M 1257.164 1293.940 C 1188.282 1281.693 1169.016 1195.720 1226.572 1157.423 C 1289.542 1115.524 1366.112 1184.162 1332.024 1251.951 C 1317.361 1281.111 1285.505 1298.979 1257.164 1293.940 Z M 2217.256 1241.793 C 2214.836 1238.842 2213.820 1231.643 2208.940 1182.840 C 2207.129 1164.727 2209.984 1159.812 2217.490 1168.121 C 2226.032 1177.576 2232.635 1197.687 2231.723 1211.471 C 2230.586 1228.662 2221.722 1247.239 2217.256 1241.793 Z M 954.000 1016.485 C 1122.425 984.967 1217.366 795.083 1130.241 664.000 C 1039.349 527.249 819.975 557.781 737.737 718.628 C 656.680 877.166 781.299 1048.803 954.000 1016.485 Z M 891.609 984.447 C 784.154 969.815 720.156 866.679 755.508 765.115 C 811.059 605.520 1017.445 556.540 1101.513 683.000 C 1140.024 740.929 1138.448 810.478 1097.086 878.447 C 1052.814 951.196 968.154 994.870 891.609 984.447 Z M 1720.194 942.097 C 1811.435 921.263 1841.317 798.809 1771.039 733.742 C 1687.366 656.274 1556.412 730.137 1575.461 844.056 C 1586.909 912.521 1653.165 957.402 1720.194 942.097 Z M 1674.500 909.627 C 1617.173 894.315 1589.303 830.951 1617.601 780.263 C 1657.029 709.641 1755.953 725.819 1774.972 806.000 C 1789.270 866.275 1732.275 925.059 1674.500 909.627 Z M 2203.214 281.937 C 2222.071 270.860 2238.512 260.693 2239.750 259.343 C 2242.000 256.888 2242.000 256.888 2242.000 214.000 C 2242.000 171.112 2242.000 171.112 2239.750 168.661 C 2236.178 164.771 2167.808 126.000 2164.520 126.000 C 2161.199 126.000 2091.757 164.842 2088.250 168.661 C 2086.000 171.112 2086.000 171.112 2086.000 214.000 C 2086.000 256.888 2086.000 256.888 2088.250 259.352 C 2090.314 261.611 2157.504 301.131 2162.376 302.951 C 2165.452 304.100 2165.701 303.972 2203.214 281.937 Z M 1043.750 268.752 C 1069.629 242.807 1074.000 238.001 1074.000 235.495 C 1074.000 230.513 1013.528 170.600 1008.500 170.600 C 1003.472 170.600 943.000 230.513 943.000 235.495 C 943.000 238.581 1000.246 297.494 1006.000 300.330 C 1010.021 302.311 1011.570 301.015 1043.750 268.752 Z M 2129.500 274.092 C 2095.500 254.277 2095.500 254.277 2095.500 214.023 C 2095.500 173.768 2095.500 173.768 2129.500 154.418 C 2148.200 143.776 2163.950 135.069 2164.500 135.070 C 2165.050 135.070 2180.575 143.779 2199.000 154.423 C 2232.500 173.775 2232.500 173.775 2232.500 214.016 C 2232.500 254.258 2232.500 254.258 2199.000 274.087 C 2180.575 284.993 2165.050 293.914 2164.500 293.911 C 2163.950 293.908 2148.200 284.990 2129.500 274.092 Z M 1596.968 289.737 C 1599.525 287.081 1625.953 207.412 1625.982 202.273 C 1626.004 198.331 1627.120 199.243 1584.685 168.534 C 1563.581 153.261 1551.948 145.454 1549.957 145.227 C 1547.410 144.936 1542.008 148.422 1513.732 168.606 C 1471.267 198.917 1471.995 198.328 1472.018 202.317 C 1472.047 207.426 1498.489 287.095 1501.032 289.737 C 1504.468 293.307 1593.532 293.307 1596.968 289.737 Z M 980.743 263.243 C 953.000 235.487 953.000 235.487 980.757 207.743 C 1008.513 180.000 1008.513 180.000 1036.257 207.757 C 1064.000 235.513 1064.000 235.513 1036.243 263.257 C 1008.487 291.000 1008.487 291.000 980.743 263.243 Z M 1506.683 282.261 C 1506.437 281.842 1500.511 263.969 1493.515 242.542 C 1480.795 203.584 1480.795 203.584 1483.148 201.669 C 1489.138 196.792 1548.615 154.678 1549.500 154.686 C 1550.861 154.700 1616.122 202.136 1616.592 203.453 C 1616.797 204.029 1611.212 222.050 1604.181 243.500 C 1591.396 282.500 1591.396 282.500 1549.264 282.761 C 1526.091 282.904 1506.930 282.679 1506.683 282.261 Z M 407.000 280.411 C 445.359 273.919 471.449 231.238 460.127 193.500 C 440.138 126.870 346.862 126.870 326.873 193.500 C 315.275 232.160 343.098 275.967 382.196 280.604 C 385.113 280.950 387.725 281.457 388.000 281.730 C 388.538 282.266 401.265 281.382 407.000 280.411 Z M 380.225 271.478 C 357.852 266.619 339.128 247.700 334.474 225.250 C 322.278 166.410 393.678 127.461 435.979 169.879 C 478.608 212.626 439.275 284.303 380.225 271.478 Z M 2184.417 252.754 C 2194.908 246.569 2204.281 240.719 2205.246 239.754 C 2207.036 237.964 2208.027 194.839 2206.376 190.537 C 2205.847 189.159 2170.093 167.124 2165.569 165.388 C 2164.011 164.790 2126.079 185.930 2122.753 189.250 C 2120.505 191.494 2120.054 236.373 2122.250 239.263 C 2123.536 240.956 2162.771 263.955 2164.421 263.984 C 2164.928 263.993 2173.926 258.939 2184.417 252.754 Z M 2146.250 246.046 C 2128.000 235.533 2128.000 235.533 2128.000 214.500 C 2128.000 193.467 2128.000 193.467 2146.250 182.954 C 2164.500 172.441 2164.500 172.441 2182.250 182.950 C 2200.000 193.459 2200.000 193.459 2200.000 214.500 C 2200.000 235.541 2200.000 235.541 2182.250 246.050 C 2164.500 256.559 2164.500 256.559 2146.250 246.046 Z M 1017.026 251.486 C 1019.578 250.167 1024.495 244.473 1024.498 242.833 C 1024.499 242.467 1024.838 241.829 1025.250 241.417 C 1026.377 240.290 1026.152 230.212 1024.984 229.490 C 1024.425 229.144 1024.188 228.505 1024.457 228.069 C 1025.419 226.513 1017.515 219.229 1013.737 218.189 C 1005.196 215.840 992.516 221.797 992.502 228.167 C 992.501 228.533 992.163 229.171 991.750 229.583 C 990.623 230.710 990.848 240.788 992.016 241.510 C 992.575 241.856 992.833 242.462 992.588 242.857 C 991.677 244.332 998.644 251.142 1002.500 252.546 C 1006.942 254.164 1012.655 253.747 1017.026 251.486 Z M 1560.692 244.286 C 1574.707 235.673 1574.653 215.272 1560.592 206.647 C 1550.058 200.186 1536.992 203.743 1530.763 214.767 C 1519.664 234.414 1541.580 256.031 1560.692 244.286 Z M 1002.307 245.282 C 994.790 241.537 994.966 229.294 1002.590 225.659 C 1011.239 221.534 1020.250 226.555 1020.250 235.500 C 1020.250 244.469 1010.904 249.564 1002.307 245.282 Z M 1542.500 239.653 C 1529.650 233.743 1531.839 212.997 1545.585 210.418 C 1556.220 208.423 1565.200 215.328 1565.200 225.500 C 1565.200 236.626 1552.770 244.376 1542.500 239.653 Z M 401.252 235.573 C 428.864 225.719 417.956 183.608 389.056 188.491 C 361.087 193.216 365.098 236.912 393.500 236.912 C 395.700 236.912 399.188 236.310 401.252 235.573 Z M 387.000 228.879 C 372.406 223.077 372.612 201.619 387.315 196.064 C 398.607 191.797 411.000 200.398 411.000 212.500 C 411.000 224.651 398.251 233.352 387.000 228.879 Z"/></svg>
