<svg xmlns="http://www.w3.org/2000/svg" width="2550" height="3300" viewBox="0 0 2550 3300" shape-rendering="geometricPrecision"><rect width="100%" height="100%" fill="white"/><path fill="#000000" fill-rule="evenodd" d="M 2478.171 3228.345 C 2480.884 3225.890 2481.058 74.826 2478.345 71.829 C 2475.890 69.116 74.826 68.943 71.829 71.655 C 69.116 74.110 68.942 3225.174 71.655 3228.171 C 74.110 3230.884 2475.174 3231.057 2478.171 3228.345 Z M 79.000 1650.000 C 79.000 79.000 79.000 79.000 1275.000 79.000 C 2471.000 79.000 2471.000 79.000 2471.000 1650.000 C 2471.000 3221.000 2471.000 3221.000 1275.000 3221.000 C 79.000 3221.000 79.000 3221.000 79.000 1650.000 Z M 982.000 3146.948 C 985.575 3146.391 989.625 3145.759 991.000 3145.544 C 995.420 3144.850 1009.448 3140.888 1009.983 3140.183 C 1010.267 3139.807 1011.400 3139.352 1012.500 3139.171 C 1029.486 3136.375 1062.510 3107.885 1075.735 3084.619 C 1081.978 3073.636 1091.338 3047.004 1089.575 3045.242 C 1089.297 3044.964 1089.512 3043.911 1090.053 3042.902 C 1091.545 3040.112 1092.192 3018.412 1091.018 3010.500 C 1090.447 3006.650 1089.933 3002.825 1089.876 3002.000 C 1089.024 2989.705 1078.420 2964.718 1067.970 2950.381 C 1055.234 2932.907 1025.285 2909.933 1012.500 2907.829 C 1011.400 2907.648 1010.267 2907.193 1009.983 2906.817 C 1009.448 2906.111 995.417 2902.149 991.000 2901.457 C 978.604 2899.513 974.446 2899.095 967.500 2899.095 C 960.554 2899.095 956.396 2899.513 944.000 2901.457 C 939.583 2902.149 925.552 2906.111 925.017 2906.817 C 924.733 2907.193 923.600 2907.648 922.500 2907.829 C 909.715 2909.933 879.766 2932.907 867.030 2950.381 C 856.580 2964.718 845.976 2989.705 845.124 3002.000 C 845.067 3002.825 844.553 3006.650 843.982 3010.500 C 842.808 3018.412 843.455 3040.112 844.947 3042.902 C 845.488 3043.911 845.703 3044.964 845.425 3045.242 C 843.662 3047.004 853.022 3073.636 859.265 3084.619 C 872.490 3107.885 905.514 3136.375 922.500 3139.171 C 923.600 3139.352 924.733 3139.807 925.017 3140.183 C 925.582 3140.927 939.668 3144.862 944.500 3145.625 C 946.150 3145.885 949.750 3146.470 952.500 3146.925 C 959.694 3148.113 974.442 3148.125 982.000 3146.948 Z M 951.665 3137.903 C 912.899 3132.238 881.791 3109.492 862.904 3073.000 C 861.873 3071.010 856.158 3054.977 855.774 3053.000 C 855.720 3052.725 855.300 3050.925 854.840 3049.000 C 850.742 3031.866 851.302 3006.550 856.078 2993.000 C 856.175 2992.725 856.455 2991.825 856.699 2991.000 C 857.641 2987.824 862.165 2975.427 862.904 2974.000 C 908.509 2885.888 1026.491 2885.888 1072.096 2974.000 C 1072.961 2975.671 1079.377 2993.500 1079.113 2993.500 C 1079.105 2993.500 1079.534 2995.300 1080.068 2997.500 C 1083.944 3013.489 1083.979 3033.032 1080.160 3049.000 C 1078.809 3054.649 1078.400 3055.972 1075.365 3064.500 C 1072.680 3072.043 1072.680 3072.042 1068.554 3079.500 C 1045.805 3120.619 997.737 3144.636 951.665 3137.903 Z M 1633.750 3080.765 C 1680.075 3034.389 1687.000 3027.071 1687.000 3024.497 C 1687.000 3019.465 1580.560 2913.600 1575.500 2913.600 C 1570.440 2913.600 1464.000 3019.465 1464.000 3024.497 C 1464.000 3027.594 1567.073 3132.397 1573.000 3135.326 C 1577.119 3137.362 1578.053 3136.523 1633.750 3080.765 Z M 449.123 3102.981 C 472.980 3089.140 493.512 3076.707 494.750 3075.352 C 497.000 3072.888 497.000 3072.888 497.000 3019.500 C 497.000 2966.112 497.000 2966.112 494.750 2963.647 C 491.150 2959.703 404.726 2910.000 401.469 2910.000 C 398.205 2910.000 310.828 2959.764 307.250 2963.661 C 305.000 2966.112 305.000 2966.112 305.000 3019.500 C 305.000 3072.888 305.000 3072.888 307.250 3075.337 C 309.320 3077.590 394.273 3127.046 399.293 3128.921 C 402.459 3130.103 401.620 3130.540 449.123 3102.981 Z M 1524.746 3075.246 C 1474.000 3024.493 1474.000 3024.493 1524.754 2973.746 C 1575.507 2923.000 1575.507 2923.000 1626.254 2973.754 C 1677.000 3024.507 1677.000 3024.507 1626.246 3075.254 C 1575.493 3126.000 1575.493 3126.000 1524.746 3075.246 Z M 357.500 3095.083 C 314.500 3070.239 314.500 3070.239 314.500 3019.500 C 314.500 2968.761 314.500 2968.761 357.500 2943.917 C 381.150 2930.252 400.950 2919.078 401.500 2919.084 C 402.050 2919.090 421.625 2930.258 445.000 2943.901 C 487.500 2968.708 487.500 2968.708 487.500 3019.500 C 487.500 3070.292 487.500 3070.292 445.000 3095.099 C 421.625 3108.742 402.050 3119.910 401.500 3119.916 C 400.950 3119.922 381.150 3108.748 357.500 3095.083 Z M 2224.087 3102.718 C 2226.725 3100.692 2227.154 3099.484 2246.397 3039.869 C 2267.426 2974.723 2266.857 2977.507 2260.201 2972.273 C 2234.700 2952.224 2162.532 2901.500 2159.508 2901.500 C 2156.536 2901.500 2070.526 2961.489 2055.791 2973.839 C 2051.501 2977.434 2051.649 2978.053 2071.603 3039.869 C 2090.846 3099.484 2091.275 3100.692 2093.913 3102.718 C 2096.211 3104.482 2221.789 3104.482 2224.087 3102.718 Z M 2098.679 3094.258 C 2095.691 3089.213 2062.081 2980.496 2063.180 2979.429 C 2065.882 2976.805 2158.539 2910.672 2159.500 2910.681 C 2160.856 2910.695 2255.134 2979.164 2255.592 2980.467 C 2255.791 2981.035 2247.732 3006.925 2237.683 3038.000 C 2219.412 3094.500 2219.412 3094.500 2159.270 3094.758 C 2126.192 3094.900 2098.926 3094.675 2098.679 3094.258 Z M 426.903 3066.750 C 440.428 3058.912 452.282 3051.713 453.247 3050.750 C 455.503 3048.498 455.965 2991.652 453.750 2988.737 C 452.670 2987.315 409.309 2961.532 403.344 2958.765 C 401.187 2957.764 353.467 2983.533 348.760 2988.240 C 346.498 2990.502 346.030 3047.331 348.250 3050.277 C 349.501 3051.936 399.696 3080.923 401.407 3080.973 C 401.906 3080.988 413.379 3074.588 426.903 3066.750 Z M 377.750 3060.055 C 354.000 3046.568 354.000 3046.568 354.000 3019.502 C 354.000 2992.437 354.000 2992.437 377.757 2978.947 C 401.514 2965.458 401.514 2965.458 424.757 2978.957 C 448.000 2992.456 448.000 2992.456 448.000 3019.498 C 448.000 3046.540 448.000 3046.540 424.750 3060.040 C 401.500 3073.541 401.500 3073.541 377.750 3060.055 Z M 983.429 3063.574 C 1018.884 3047.894 1019.948 3001.083 985.231 2984.325 C 956.561 2970.485 922.855 2993.553 924.471 3025.908 C 925.918 3054.886 957.481 3075.049 983.429 3063.574 Z M 956.624 3058.363 C 930.043 3050.201 922.224 3015.843 942.644 2996.928 C 962.641 2978.406 994.698 2987.041 1002.416 3013.028 C 1010.710 3040.959 984.488 3066.920 956.624 3058.363 Z M 1583.000 3053.845 C 1590.309 3051.871 1597.169 3046.386 1601.838 3038.785 C 1610.169 3025.222 1603.883 3004.984 1589.108 2997.800 C 1565.587 2986.364 1540.712 3006.394 1546.281 3032.285 C 1548.138 3040.916 1559.737 3052.407 1567.842 3053.645 C 1568.580 3053.758 1569.476 3054.143 1569.835 3054.502 C 1570.468 3055.135 1579.983 3054.660 1583.000 3053.845 Z M 1567.750 3046.961 C 1566.787 3046.378 1566.000 3046.166 1566.000 3046.490 C 1566.000 3046.814 1565.438 3046.618 1564.750 3046.055 C 1564.062 3045.491 1562.015 3043.840 1560.201 3042.385 C 1547.477 3032.182 1549.506 3013.867 1564.539 3003.235 C 1566.528 3001.828 1568.542 3001.512 1575.500 3001.512 C 1584.492 3001.512 1584.393 3001.479 1590.799 3006.615 C 1603.523 3016.818 1601.494 3035.133 1586.461 3045.765 C 1583.651 3047.752 1570.449 3048.596 1567.750 3046.961 Z M 2167.000 3041.845 C 2174.309 3039.871 2181.169 3034.386 2185.838 3026.785 C 2194.169 3013.222 2187.883 2992.984 2173.108 2985.800 C 2149.587 2974.364 2124.712 2994.394 2130.281 3020.285 C 2132.138 3028.916 2143.737 3040.407 2151.842 3041.645 C 2152.580 3041.758 2153.476 3042.143 2153.835 3042.502 C 2154.468 3043.135 2163.983 3042.660 2167.000 3041.845 Z M 2151.750 3034.961 C 2150.787 3034.378 2150.000 3034.166 2150.000 3034.490 C 2150.000 3034.814 2149.438 3034.618 2148.750 3034.055 C 2148.062 3033.491 2146.015 3031.840 2144.201 3030.385 C 2131.477 3020.182 2133.506 3001.867 2148.539 2991.235 C 2150.528 2989.828 2152.542 2989.512 2159.500 2989.512 C 2168.492 2989.512 2168.393 2989.479 2174.799 2994.615 C 2187.523 3004.818 2185.494 3023.133 2170.461 3033.765 C 2167.651 3035.752 2154.449 3036.596 2151.750 3034.961 Z M 1355.500 2824.032 C 1648.262 2801.067 1903.703 2671.821 2107.583 2443.500 C 2272.054 2259.311 2379.975 2002.598 2397.445 1754.000 C 2408.601 1595.243 2393.298 1451.090 2350.098 1308.000 C 2269.256 1040.225 2122.554 832.405 1901.000 671.801 C 1757.459 567.748 1562.932 494.816 1383.000 477.592 C 918.343 433.114 474.192 692.184 268.795 1127.500 C 133.893 1413.410 111.828 1726.927 205.603 2025.377 C 222.330 2078.613 248.774 2143.653 274.977 2196.000 C 481.058 2607.708 912.965 2858.745 1355.500 2824.032 Z M 1246.000 2784.338 C 802.559 2772.179 399.809 2466.778 252.528 2031.000 C 237.588 1986.797 225.805 1944.695 217.893 1907.255 C 185.477 1753.851 181.055 1628.775 203.000 1486.000 C 225.567 1339.173 277.937 1188.052 347.508 1069.000 C 421.176 942.937 498.444 850.342 602.500 763.427 C 844.018 561.696 1174.498 474.199 1469.243 533.951 C 1918.676 625.062 2253.150 977.315 2340.957 1452.000 C 2379.787 1661.917 2355.398 1898.186 2275.127 2089.734 C 2272.307 2096.462 2270.000 2102.164 2270.000 2102.404 C 2270.000 2103.496 2251.959 2143.394 2243.731 2160.500 C 2056.283 2550.171 1663.461 2795.786 1246.000 2784.338 Z M 1293.150 2692.035 C 1310.787 2686.588 1330.745 2667.775 1341.353 2646.598 C 1372.171 2585.074 1371.316 2440.574 1339.799 2384.000 C 1306.635 2324.472 1240.413 2327.465 1209.423 2389.892 C 1180.378 2448.401 1180.110 2582.364 1208.916 2643.500 C 1227.322 2682.565 1260.995 2701.967 1293.150 2692.035 Z M 1268.882 2654.679 C 1249.540 2647.448 1236.666 2621.538 1230.086 2576.601 C 1217.142 2488.189 1233.009 2397.644 1264.176 2382.070 C 1307.760 2360.291 1337.859 2457.368 1322.910 2571.500 C 1315.362 2629.123 1292.924 2663.667 1268.882 2654.679 Z M 859.240 2300.642 C 960.594 2276.740 1092.859 2155.825 1170.051 2016.500 C 1232.825 1903.200 1262.222 1780.698 1233.332 1752.799 C 1214.845 1734.946 1154.275 1743.315 1087.952 1772.887 C 882.414 1864.532 700.798 2102.414 734.551 2235.777 C 747.916 2288.587 798.586 2314.946 859.240 2300.642 Z M 1757.378 2296.107 C 1837.526 2274.836 1843.389 2163.911 1770.781 2042.500 C 1679.799 1890.366 1486.773 1749.455 1361.000 1743.357 C 1317.653 1741.255 1307.053 1751.587 1308.264 1794.755 C 1310.727 1882.526 1370.276 2014.595 1454.013 2118.000 C 1552.721 2239.892 1682.375 2316.013 1757.378 2296.107 Z M 811.500 2268.520 C 749.595 2254.892 750.312 2171.610 813.276 2062.000 C 889.569 1929.189 1068.859 1793.754 1188.128 1778.840 C 1212.115 1775.840 1214.687 1786.664 1202.871 1840.887 C 1178.679 1951.900 1097.247 2087.599 1003.165 2173.679 C 930.145 2240.488 854.406 2277.966 811.500 2268.520 Z M 1709.000 2261.482 C 1562.326 2231.042 1378.646 2008.291 1345.988 1821.252 C 1338.627 1779.099 1343.281 1773.493 1379.500 1780.884 C 1509.729 1807.461 1670.676 1934.626 1746.055 2070.500 C 1813.374 2191.846 1796.346 2279.610 1709.000 2261.482 Z M 1488.904 1715.900 C 1659.877 1698.504 1840.338 1592.784 1897.016 1476.815 C 1943.657 1381.384 1882.313 1313.050 1765.500 1330.313 C 1679.671 1342.996 1571.354 1397.437 1487.000 1470.289 C 1388.508 1555.351 1324.056 1665.899 1354.010 1698.395 C 1370.481 1716.264 1420.957 1722.814 1488.904 1715.900 Z M 1151.000 1715.601 C 1208.440 1705.559 1216.061 1683.709 1184.519 1619.500 C 1118.357 1484.820 920.820 1346.940 769.500 1329.820 C 656.357 1317.019 598.169 1385.282 644.469 1476.500 C 702.892 1591.602 886.236 1697.297 1059.000 1715.470 C 1067.525 1716.367 1075.400 1717.264 1076.500 1717.465 C 1082.860 1718.624 1142.202 1717.139 1151.000 1715.601 Z M 1420.331 1683.540 C 1377.959 1677.782 1376.231 1674.017 1396.886 1632.449 C 1458.912 1507.621 1638.190 1381.973 1779.175 1364.518 C 1936.979 1344.982 1895.912 1502.336 1716.541 1604.510 C 1624.020 1657.211 1489.903 1692.994 1420.331 1683.540 Z M 1078.469 1682.553 C 921.613 1667.585 754.356 1582.595 689.470 1484.885 C 612.862 1369.526 715.701 1325.378 885.769 1400.615 C 998.224 1450.364 1104.742 1542.258 1149.360 1628.017 C 1166.731 1661.403 1168.385 1672.846 1156.597 1678.060 C 1145.375 1683.024 1106.709 1685.248 1078.469 1682.553 Z M 1288.500 1654.534 C 1307.556 1645.983 1334.653 1613.132 1355.753 1573.000 C 1409.651 1470.485 1431.039 1324.668 1408.447 1213.741 C 1373.096 1040.168 1262.119 984.563 1185.435 1102.000 C 1132.013 1183.813 1118.217 1319.466 1149.980 1450.627 C 1181.300 1579.962 1245.168 1673.978 1288.500 1654.534 Z M 471.500 1635.981 C 550.021 1629.445 597.099 1597.025 596.983 1549.566 C 596.859 1499.113 542.348 1467.504 448.500 1463.465 C 342.505 1458.904 270.947 1495.894 274.330 1553.500 C 277.673 1610.453 360.736 1645.200 471.500 1635.981 Z M 2156.000 1634.537 C 2223.797 1626.056 2266.372 1599.783 2274.501 1561.412 C 2284.883 1512.406 2238.081 1473.900 2158.000 1465.562 C 2060.622 1455.423 1980.786 1478.125 1959.093 1522.122 C 1932.468 1576.122 1983.056 1627.592 2070.000 1634.961 C 2076.875 1635.544 2084.075 1636.199 2086.000 1636.417 C 2094.247 1637.351 2144.238 1636.008 2156.000 1634.537 Z M 1268.373 1616.086 C 1246.876 1602.977 1212.627 1539.623 1194.568 1479.560 C 1163.908 1377.585 1159.539 1284.547 1181.534 1202.000 C 1217.552 1066.822 1291.995 1034.701 1343.765 1132.000 C 1400.158 1237.987 1393.833 1416.362 1329.030 1547.500 C 1301.728 1602.751 1282.380 1624.627 1268.373 1616.086 Z M 419.000 1599.321 C 346.862 1591.934 310.896 1575.196 311.022 1549.072 C 311.214 1509.165 428.682 1486.801 512.500 1510.715 C 582.328 1530.637 573.912 1578.728 497.857 1594.399 C 478.777 1598.330 435.622 1601.024 419.000 1599.321 Z M 2079.346 1598.013 C 2021.935 1591.251 1989.528 1573.927 1989.528 1550.000 C 1989.528 1520.744 2039.060 1501.711 2115.500 1501.592 C 2199.617 1501.462 2252.081 1527.350 2235.428 1560.770 C 2221.921 1587.874 2146.354 1605.906 2079.346 1598.013 Z M 1296.127 969.323 C 1314.759 962.934 1334.590 942.124 1345.067 917.967 C 1372.284 855.217 1370.307 722.881 1341.315 666.747 C 1306.621 599.573 1234.063 606.737 1205.149 680.191 C 1182.791 736.991 1181.792 847.240 1203.090 907.598 C 1220.410 956.684 1258.770 982.134 1296.127 969.323 Z M 1265.213 931.573 C 1217.251 908.754 1211.035 710.591 1256.936 667.657 C 1289.710 637.001 1320.240 682.481 1325.961 770.483 C 1332.605 872.688 1303.526 949.801 1265.213 931.573 Z M 2195.646 357.974 C 2216.466 345.789 2234.512 334.710 2235.750 333.354 C 2238.000 330.888 2238.000 330.888 2238.000 284.000 C 2238.000 237.112 2238.000 237.112 2235.750 234.660 C 2232.178 230.767 2156.793 188.000 2153.504 188.000 C 2150.182 188.000 2073.759 230.829 2070.250 234.657 C 2068.000 237.112 2068.000 237.112 2068.000 284.000 C 2068.000 330.888 2068.000 330.888 2070.250 333.341 C 2072.339 335.619 2146.368 379.081 2151.287 380.918 C 2154.459 382.103 2154.108 382.285 2195.646 357.974 Z M 1589.500 378.608 C 1600.826 376.137 1617.344 369.541 1619.112 366.783 C 1619.448 366.259 1619.954 365.980 1620.236 366.165 C 1621.179 366.782 1630.433 360.225 1636.935 354.332 C 1676.621 318.365 1681.936 257.019 1648.961 215.534 C 1640.741 205.192 1622.398 189.420 1620.236 190.835 C 1619.954 191.020 1619.448 190.741 1619.112 190.217 C 1615.182 184.086 1587.250 176.537 1568.500 176.537 C 1549.750 176.537 1521.818 184.086 1517.888 190.217 C 1517.552 190.741 1517.046 191.020 1516.764 190.835 C 1515.821 190.218 1506.567 196.775 1500.065 202.668 C 1460.379 238.635 1455.064 299.981 1488.039 341.466 C 1496.326 351.892 1512.995 366.272 1516.388 365.921 C 1516.877 365.871 1517.552 366.259 1517.888 366.783 C 1519.900 369.921 1539.039 377.166 1550.075 378.968 C 1554.159 379.635 1558.175 380.344 1559.000 380.543 C 1562.321 381.347 1582.941 380.038 1589.500 378.608 Z M 1011.566 372.928 C 1108.594 359.432 1140.927 235.594 1062.719 177.007 C 995.834 126.903 899.331 168.359 888.982 251.642 C 880.321 321.347 942.204 382.575 1011.566 372.928 Z M 1553.758 370.985 C 1478.910 359.105 1448.914 266.353 1502.518 212.544 C 1552.139 162.734 1638.378 184.482 1658.133 251.788 C 1677.378 317.355 1621.062 381.668 1553.758 370.985 Z M 2115.000 350.080 C 2077.500 328.238 2077.500 328.238 2077.500 284.006 C 2077.500 239.774 2077.500 239.774 2115.000 218.424 C 2135.625 206.682 2152.950 197.074 2153.500 197.074 C 2154.050 197.073 2171.150 206.678 2191.500 218.418 C 2228.500 239.762 2228.500 239.762 2228.500 284.024 C 2228.500 328.286 2228.500 328.286 2191.500 350.094 C 2171.150 362.088 2154.050 371.905 2153.500 371.911 C 2152.950 371.916 2135.625 362.092 2115.000 350.080 Z M 464.182 342.456 C 485.807 330.002 504.512 318.704 505.750 317.350 C 508.000 314.888 508.000 314.888 508.000 266.500 C 508.000 218.112 508.000 218.112 505.750 215.648 C 502.210 211.772 423.768 167.000 420.517 167.000 C 417.266 167.000 337.778 211.847 334.250 215.672 C 332.000 218.112 332.000 218.112 332.000 266.500 C 332.000 314.888 332.000 314.888 334.250 317.328 C 336.225 319.469 415.114 364.993 419.000 366.234 C 421.419 367.006 423.008 366.170 464.182 342.456 Z M 979.951 363.453 C 902.079 349.348 870.022 254.046 923.711 196.260 C 975.474 140.548 1068.487 160.530 1092.582 232.540 C 1116.726 304.693 1054.547 376.965 979.951 363.453 Z M 380.500 334.607 C 341.500 312.271 341.500 312.271 341.500 266.500 C 341.500 220.729 341.500 220.729 380.500 198.393 C 401.950 186.107 419.950 176.064 420.500 176.073 C 421.050 176.083 438.825 186.136 460.000 198.413 C 498.500 220.736 498.500 220.736 498.500 266.500 C 498.500 312.264 498.500 312.264 460.000 334.587 C 438.825 346.864 421.050 356.917 420.500 356.927 C 419.950 356.936 401.950 346.893 380.500 334.607 Z M 2177.695 325.181 C 2189.828 317.975 2200.036 311.350 2200.378 310.458 C 2202.046 306.110 2201.033 258.033 2199.235 256.235 C 2194.620 251.620 2153.807 229.767 2151.648 230.755 C 2144.815 233.882 2107.295 255.350 2106.250 256.731 C 2105.326 257.952 2105.000 265.053 2105.000 284.000 C 2105.000 302.944 2105.326 310.049 2106.250 311.274 C 2108.161 313.805 2152.282 339.062 2154.068 338.647 C 2154.930 338.447 2165.562 332.387 2177.695 325.181 Z M 2132.750 319.558 C 2112.000 307.570 2112.000 307.570 2112.000 284.032 C 2112.000 260.494 2112.000 260.494 2132.743 248.975 C 2153.486 237.457 2153.486 237.457 2173.743 248.939 C 2194.000 260.421 2194.000 260.421 2194.000 283.989 C 2194.000 307.556 2194.000 307.556 2173.750 319.551 C 2153.500 331.546 2153.500 331.546 2132.750 319.558 Z M 443.361 309.269 C 455.516 302.267 466.258 295.742 467.231 294.769 C 469.932 292.068 469.932 240.932 467.231 238.231 C 465.401 236.401 421.833 211.000 420.525 211.000 C 419.184 211.000 374.541 236.465 372.753 238.250 C 370.501 240.498 370.044 291.354 372.250 294.270 C 373.487 295.905 418.683 321.918 420.381 321.972 C 420.865 321.987 431.206 316.271 443.361 309.269 Z M 399.245 302.554 C 378.000 290.569 378.000 290.569 378.000 266.500 C 378.000 242.431 378.000 242.431 399.245 230.446 C 420.490 218.460 420.490 218.460 441.245 230.448 C 462.000 242.435 462.000 242.435 462.000 266.500 C 462.000 290.565 462.000 290.565 441.245 302.552 C 420.490 314.540 420.490 314.540 399.245 302.554 Z M 1579.654 312.023 C 1593.151 307.858 1604.283 291.680 1603.565 277.273 C 1602.176 249.377 1570.118 233.466 1548.390 249.888 C 1516.287 274.151 1541.298 323.859 1579.654 312.023 Z M 1558.969 305.464 C 1538.539 299.166 1533.467 270.884 1550.199 256.561 C 1560.249 247.959 1576.751 247.959 1586.801 256.561 C 1610.867 277.162 1589.418 314.850 1558.969 305.464 Z M 1009.636 300.684 C 1045.483 287.557 1043.917 238.534 1007.305 227.681 C 983.467 220.614 958.691 240.207 959.479 265.500 C 960.278 291.122 986.163 309.279 1009.636 300.684 Z M 985.500 293.502 C 964.796 285.046 959.502 258.279 975.391 242.391 C 991.487 226.295 1019.032 232.127 1026.859 253.288 C 1036.430 279.162 1010.979 303.909 985.500 293.502 Z"/></svg>
