<svg xmlns="http://www.w3.org/2000/svg" width="2550" height="3300" viewBox="0 0 2550 3300" shape-rendering="geometricPrecision"><rect width="100%" height="100%" fill="white"/><path fill="#000000" fill-rule="evenodd" d="M 2451.171 3201.345 C 2453.884 3198.890 2454.058 101.826 2451.345 98.829 C 2448.890 96.116 101.826 95.943 98.829 98.655 C 96.116 101.110 95.942 3198.174 98.655 3201.171 C 101.110 3203.884 2448.174 3204.057 2451.171 3201.345 Z M 106.000 1650.000 C 106.000 106.000 106.000 106.000 1275.000 106.000 C 2444.000 106.000 2444.000 106.000 2444.000 1650.000 C 2444.000 3194.000 2444.000 3194.000 1275.000 3194.000 C 106.000 3194.000 106.000 3194.000 106.000 1650.000 Z M 1635.250 3062.265 C 1681.130 3016.333 1688.000 3009.071 1688.000 3006.497 C 1688.000 3001.465 1582.560 2896.600 1577.500 2896.600 C 1572.440 2896.600 1467.000 3001.465 1467.000 3006.497 C 1467.000 3009.594 1569.075 3113.398 1575.000 3116.326 C 1579.117 3118.361 1580.064 3117.512 1635.250 3062.265 Z M 500.956 3105.750 C 503.490 3103.117 538.948 2996.428 538.980 2991.339 C 539.006 2987.290 541.977 2989.648 488.189 2951.035 C 457.475 2928.986 441.994 2918.459 439.939 2918.224 C 437.333 2917.927 430.425 2922.490 390.206 2951.074 C 336.858 2988.991 338.993 2987.308 339.020 2991.424 C 339.053 2996.456 374.537 3103.145 377.044 3105.750 C 379.210 3108.000 379.210 3108.000 439.000 3108.000 C 498.790 3108.000 498.790 3108.000 500.956 3105.750 Z M 1527.246 3056.746 C 1477.000 3006.493 1477.000 3006.493 1527.254 2956.246 C 1577.507 2906.000 1577.507 2906.000 1627.754 2956.254 C 1678.000 3006.507 1678.000 3006.507 1627.746 3056.754 C 1577.493 3107.000 1577.493 3107.000 1527.246 3056.746 Z M 382.679 3098.258 C 382.104 3097.290 348.000 2993.428 348.000 2992.647 C 348.000 2991.779 438.236 2927.666 439.455 2927.668 C 440.841 2927.670 529.118 2991.123 529.597 2992.461 C 529.801 2993.033 522.192 3017.125 512.688 3046.000 C 495.407 3098.500 495.407 3098.500 439.268 3098.758 C 408.391 3098.900 382.926 3098.675 382.679 3098.258 Z M 1040.240 3061.925 C 1060.183 3050.303 1077.513 3039.690 1078.750 3038.341 C 1081.000 3035.888 1081.000 3035.888 1081.000 2990.500 C 1081.000 2945.112 1081.000 2945.112 1078.750 2942.657 C 1075.095 2938.669 1002.782 2897.000 999.517 2897.000 C 996.125 2897.000 920.741 2940.104 918.475 2943.339 C 915.631 2947.399 916.347 3035.174 919.250 3038.350 C 921.321 3040.616 992.272 3082.045 997.292 3083.920 C 1000.466 3085.106 1000.457 3085.110 1040.240 3061.925 Z M 2173.655 3060.968 C 2192.820 3049.884 2209.512 3039.706 2210.750 3038.352 C 2213.651 3035.175 2214.366 2951.396 2211.527 2947.341 C 2209.267 2944.115 2137.815 2903.000 2134.468 2903.000 C 2131.190 2903.000 2060.783 2942.808 2057.250 2946.659 C 2055.000 2949.112 2055.000 2949.112 2055.000 2992.500 C 2055.000 3035.888 2055.000 3035.888 2057.250 3038.338 C 2059.321 3040.593 2127.200 3080.019 2132.272 3081.913 C 2135.432 3083.093 2135.188 3083.217 2173.655 3060.968 Z M 962.500 3054.074 C 926.500 3033.239 926.500 3033.239 926.500 2990.500 C 926.500 2947.761 926.500 2947.761 962.500 2926.926 C 982.300 2915.466 998.950 2906.088 999.500 2906.085 C 1000.050 2906.082 1016.475 2915.457 1036.000 2926.918 C 1071.500 2947.756 1071.500 2947.756 1071.500 2990.500 C 1071.500 3033.244 1071.500 3033.244 1036.000 3054.082 C 1016.475 3065.543 1000.050 3074.918 999.500 3074.915 C 998.950 3074.912 982.300 3065.534 962.500 3054.074 Z M 2099.000 3053.077 C 2064.500 3033.227 2064.500 3033.227 2064.500 2992.500 C 2064.500 2951.773 2064.500 2951.773 2099.000 2931.923 C 2117.975 2921.005 2133.950 2912.077 2134.500 2912.083 C 2135.050 2912.089 2150.800 2921.010 2169.500 2931.908 C 2203.500 2951.723 2203.500 2951.723 2203.500 2992.500 C 2203.500 3033.277 2203.500 3033.277 2169.500 3053.092 C 2150.800 3063.990 2135.050 3072.911 2134.500 3072.917 C 2133.950 3072.923 2117.975 3063.995 2099.000 3053.077 Z M 448.379 3049.100 C 449.097 3048.505 449.980 3048.313 450.342 3048.675 C 450.704 3049.037 451.000 3048.782 451.000 3048.108 C 451.000 3047.434 451.450 3047.160 452.000 3047.500 C 452.550 3047.840 453.000 3047.566 453.000 3046.892 C 453.000 3046.218 453.273 3045.940 453.607 3046.273 C 454.247 3046.914 455.690 3045.907 459.298 3042.298 C 463.867 3037.729 466.437 3033.516 465.540 3032.065 C 465.236 3031.573 465.515 3030.995 466.160 3030.780 C 466.925 3030.525 467.333 3027.646 467.333 3022.500 C 467.333 3017.354 466.925 3014.475 466.160 3014.220 C 465.515 3014.005 465.236 3013.427 465.540 3012.935 C 466.437 3011.484 463.867 3007.271 459.298 3002.702 C 455.690 2999.093 454.247 2998.086 453.607 2998.727 C 453.273 2999.060 453.000 2998.782 453.000 2998.108 C 453.000 2997.434 452.550 2997.160 452.000 2997.500 C 451.450 2997.840 451.000 2997.566 451.000 2996.892 C 451.000 2996.218 450.704 2995.963 450.342 2996.325 C 449.980 2996.687 449.011 2996.424 448.188 2995.741 C 447.303 2995.007 443.757 2994.500 439.500 2994.500 C 435.243 2994.500 431.697 2995.007 430.812 2995.741 C 429.989 2996.424 429.020 2996.687 428.658 2996.325 C 428.296 2995.963 428.000 2996.218 428.000 2996.892 C 428.000 2997.566 427.550 2997.840 427.000 2997.500 C 426.450 2997.160 426.000 2997.434 426.000 2998.108 C 426.000 2998.782 425.727 2999.060 425.393 2998.727 C 424.753 2998.086 423.310 2999.093 419.702 3002.702 C 415.133 3007.271 412.563 3011.484 413.460 3012.935 C 413.764 3013.427 413.485 3014.005 412.840 3014.220 C 412.075 3014.475 411.667 3017.354 411.667 3022.500 C 411.667 3027.646 412.075 3030.525 412.840 3030.780 C 413.485 3030.995 413.764 3031.573 413.460 3032.065 C 412.563 3033.516 415.133 3037.729 419.702 3042.298 C 423.310 3045.907 424.753 3046.914 425.393 3046.273 C 425.727 3045.940 426.000 3046.218 426.000 3046.892 C 426.000 3047.566 426.450 3047.840 427.000 3047.500 C 427.550 3047.160 428.000 3047.359 428.000 3047.941 C 428.000 3048.523 428.337 3048.929 428.750 3048.841 C 429.163 3048.754 430.175 3048.943 431.000 3049.262 C 431.825 3049.581 433.175 3050.094 434.000 3050.402 C 436.324 3051.271 446.919 3050.312 448.379 3049.100 Z M 432.030 3042.941 C 409.573 3033.494 415.340 3001.500 439.500 3001.500 C 461.300 3001.500 469.202 3027.775 451.206 3040.423 C 446.531 3043.709 436.870 3044.977 432.030 3042.941 Z M 1020.963 3030.838 C 1032.258 3024.148 1042.287 3017.798 1043.250 3016.727 C 1045.920 3013.754 1045.911 2965.906 1043.240 2963.250 C 1038.544 2958.580 999.812 2937.765 997.651 2938.749 C 991.174 2941.700 955.310 2962.354 954.250 2963.744 C 953.328 2964.952 953.000 2971.846 953.000 2990.000 C 953.000 3008.146 953.329 3015.052 954.250 3016.271 C 955.554 3017.997 997.780 3042.938 999.463 3042.978 C 999.993 3042.990 1009.668 3037.527 1020.963 3030.838 Z M 2155.762 3030.844 C 2166.946 3024.158 2176.525 3017.887 2177.048 3016.909 C 2178.951 3013.355 2178.237 2968.236 2176.247 2966.250 C 2171.519 2961.530 2134.854 2941.745 2132.678 2942.740 C 2126.330 2945.640 2092.318 2965.349 2091.250 2966.747 C 2090.331 2967.949 2090.000 2974.645 2090.000 2992.000 C 2090.000 3009.345 2090.332 3016.057 2091.250 3017.272 C 2092.567 3019.015 2132.808 3042.960 2134.463 3042.985 C 2134.993 3042.993 2144.577 3037.530 2155.762 3030.844 Z M 1585.509 3034.454 C 1592.761 3032.346 1606.834 3021.069 1602.318 3020.985 C 1601.868 3020.976 1602.095 3020.592 1602.822 3020.131 C 1603.550 3019.670 1604.597 3017.539 1605.151 3015.396 C 1607.148 3007.663 1605.815 2994.766 1602.822 2992.869 C 1602.095 2992.408 1601.868 2992.024 1602.318 2992.015 C 1603.864 2991.986 1598.734 2985.820 1594.782 2982.957 C 1582.103 2973.772 1562.837 2976.590 1554.063 2988.911 C 1552.854 2990.610 1552.232 2992.007 1552.682 2992.015 C 1553.132 2992.024 1552.905 2992.408 1552.178 2992.869 C 1551.450 2993.330 1550.403 2995.461 1549.849 2997.604 C 1547.852 3005.337 1549.185 3018.234 1552.178 3020.131 C 1552.905 3020.592 1553.132 3020.976 1552.682 3020.985 C 1551.279 3021.011 1555.968 3026.874 1559.620 3029.660 C 1567.060 3035.334 1576.482 3037.079 1585.509 3034.454 Z M 979.250 3023.783 C 960.000 3012.605 960.000 3012.605 960.003 2990.052 C 960.006 2967.500 960.006 2967.500 979.753 2956.459 C 999.500 2945.417 999.500 2945.417 1018.750 2956.418 C 1038.000 2967.419 1038.000 2967.419 1038.000 2989.975 C 1038.000 3012.530 1038.000 3012.530 1019.218 3023.765 C 1008.887 3029.944 1000.000 3034.991 999.468 3034.980 C 998.935 3034.970 989.837 3029.931 979.250 3023.783 Z M 2115.250 3024.266 C 2097.000 3013.576 2097.000 3013.576 2097.000 2992.038 C 2097.001 2970.500 2097.001 2970.500 2115.741 2959.960 C 2134.481 2949.420 2134.481 2949.420 2152.740 2959.946 C 2171.000 2970.472 2171.000 2970.472 2171.000 2991.990 C 2171.000 3013.509 2171.000 3013.509 2153.088 3024.254 C 2143.236 3030.164 2134.798 3034.990 2134.338 3034.978 C 2133.877 3034.966 2125.287 3030.145 2115.250 3024.266 Z M 1570.764 3028.064 C 1546.083 3020.095 1551.587 2984.500 1577.500 2984.500 C 1606.377 2984.500 1608.052 3026.671 1579.250 3028.568 C 1576.088 3028.777 1572.269 3028.550 1570.764 3028.064 Z M 1621.750 2756.764 C 1665.408 2713.054 1672.000 2706.066 1672.000 2703.497 C 1672.000 2698.468 1571.558 2598.600 1566.500 2598.600 C 1561.442 2598.600 1461.000 2698.468 1461.000 2703.497 C 1461.000 2706.593 1558.087 2805.404 1564.000 2808.326 C 1568.111 2810.358 1569.121 2809.456 1621.750 2756.764 Z M 1016.308 2801.932 C 1024.898 2800.656 1039.118 2797.084 1040.450 2795.867 C 1040.972 2795.390 1041.972 2795.000 1042.670 2795.000 C 1045.322 2795.000 1065.804 2784.535 1068.000 2782.058 C 1068.275 2781.748 1070.385 2780.216 1072.689 2778.654 C 1077.425 2775.441 1092.698 2759.958 1095.566 2755.461 C 1096.604 2753.832 1097.727 2752.275 1098.060 2752.000 C 1099.573 2750.753 1107.000 2737.204 1107.000 2735.692 C 1107.000 2734.761 1107.378 2734.000 1107.840 2734.000 C 1108.302 2734.000 1109.283 2732.088 1110.020 2729.750 C 1110.757 2727.412 1111.667 2725.050 1112.042 2724.500 C 1112.417 2723.950 1113.053 2722.150 1113.456 2720.500 C 1113.858 2718.850 1114.373 2716.825 1114.600 2716.000 C 1119.806 2697.073 1119.838 2671.944 1114.677 2655.500 C 1114.505 2654.950 1114.005 2652.925 1113.566 2651.000 C 1113.128 2649.075 1112.452 2647.050 1112.065 2646.500 C 1111.677 2645.950 1110.757 2643.588 1110.020 2641.250 C 1109.283 2638.912 1108.302 2637.000 1107.840 2637.000 C 1107.378 2637.000 1107.000 2636.239 1107.000 2635.308 C 1107.000 2633.796 1099.573 2620.247 1098.060 2619.000 C 1097.727 2618.725 1096.604 2617.168 1095.566 2615.539 C 1092.698 2611.042 1077.425 2595.559 1072.689 2592.346 C 1070.385 2590.784 1068.275 2589.252 1068.000 2588.942 C 1065.804 2586.465 1045.322 2576.000 1042.670 2576.000 C 1041.972 2576.000 1040.973 2575.610 1040.450 2575.133 C 1037.433 2572.378 1013.708 2568.086 1001.500 2568.086 C 989.292 2568.086 965.567 2572.378 962.550 2575.133 C 962.027 2575.610 961.028 2576.000 960.330 2576.000 C 957.678 2576.000 937.196 2586.465 935.000 2588.942 C 934.725 2589.252 932.615 2590.784 930.311 2592.346 C 925.575 2595.559 910.302 2611.042 907.434 2615.539 C 906.396 2617.168 905.273 2618.725 904.940 2619.000 C 903.427 2620.247 896.000 2633.796 896.000 2635.308 C 896.000 2636.239 895.622 2637.000 895.160 2637.000 C 894.698 2637.000 893.717 2638.912 892.980 2641.250 C 892.243 2643.588 891.333 2645.950 890.958 2646.500 C 890.583 2647.050 889.947 2648.850 889.544 2650.500 C 889.142 2652.150 888.627 2654.175 888.400 2655.000 C 883.107 2674.246 883.107 2696.754 888.400 2716.000 C 888.627 2716.825 889.142 2718.850 889.544 2720.500 C 889.947 2722.150 890.583 2723.950 890.958 2724.500 C 891.333 2725.050 892.243 2727.412 892.980 2729.750 C 893.717 2732.088 894.698 2734.000 895.160 2734.000 C 895.622 2734.000 896.000 2734.761 896.000 2735.692 C 896.000 2737.204 903.427 2750.753 904.940 2752.000 C 905.273 2752.275 906.396 2753.832 907.434 2755.461 C 910.302 2759.958 925.575 2775.441 930.311 2778.654 C 932.615 2780.216 934.725 2781.748 935.000 2782.058 C 937.196 2784.535 957.678 2795.000 960.330 2795.000 C 961.028 2795.000 962.027 2795.383 962.550 2795.851 C 967.894 2800.640 1000.315 2804.307 1016.308 2801.932 Z M 1518.746 2751.246 C 1471.000 2703.492 1471.000 2703.492 1518.754 2655.746 C 1566.508 2608.000 1566.508 2608.000 1614.254 2655.754 C 1662.000 2703.508 1662.000 2703.508 1614.246 2751.254 C 1566.492 2799.000 1566.492 2799.000 1518.746 2751.246 Z M 2183.750 2746.763 C 2224.741 2705.718 2231.000 2699.060 2231.000 2696.497 C 2231.000 2691.473 2136.555 2597.600 2131.500 2597.600 C 2126.445 2597.600 2032.000 2691.473 2032.000 2696.497 C 2032.000 2699.592 2123.103 2792.413 2129.000 2795.327 C 2133.101 2797.353 2134.189 2796.388 2183.750 2746.763 Z M 989.000 2793.420 C 967.959 2789.708 955.947 2785.219 940.973 2775.471 C 852.376 2717.798 895.271 2577.500 1001.500 2577.500 C 1098.023 2577.500 1146.277 2693.830 1078.053 2762.053 C 1055.324 2784.783 1016.854 2798.333 989.000 2793.420 Z M 2086.746 2741.246 C 2042.000 2696.492 2042.000 2696.492 2086.754 2651.746 C 2131.508 2607.000 2131.508 2607.000 2176.254 2651.754 C 2221.000 2696.508 2221.000 2696.508 2176.246 2741.254 C 2131.492 2786.000 2131.492 2786.000 2086.746 2741.246 Z M 471.959 2756.746 C 474.497 2754.110 508.951 2650.429 508.981 2645.339 C 509.005 2641.296 511.817 2643.540 459.738 2606.040 C 429.639 2584.366 415.092 2574.470 412.976 2574.229 C 410.312 2573.925 403.927 2578.137 364.703 2606.075 C 312.960 2642.930 314.994 2641.318 315.019 2645.424 C 315.049 2650.457 349.530 2754.138 352.041 2756.746 C 355.465 2760.304 468.535 2760.304 471.959 2756.746 Z M 357.680 2749.259 C 357.110 2748.292 324.000 2647.415 324.000 2646.642 C 324.000 2645.775 411.243 2583.666 412.453 2583.671 C 413.817 2583.677 499.142 2645.183 499.609 2646.497 C 499.805 2647.049 492.414 2670.450 483.184 2698.500 C 466.401 2749.500 466.401 2749.500 412.265 2749.759 C 382.490 2749.901 357.927 2749.676 357.680 2749.259 Z M 1575.379 2730.100 C 1576.097 2729.505 1576.980 2729.313 1577.342 2729.675 C 1577.704 2730.037 1578.000 2729.782 1578.000 2729.108 C 1578.000 2728.434 1578.450 2728.160 1579.000 2728.500 C 1579.550 2728.840 1580.000 2728.566 1580.000 2727.892 C 1580.000 2727.218 1580.273 2726.940 1580.607 2727.273 C 1581.247 2727.914 1582.690 2726.907 1586.298 2723.298 C 1590.867 2718.729 1593.437 2714.516 1592.540 2713.065 C 1592.236 2712.573 1592.515 2711.995 1593.160 2711.780 C 1593.925 2711.525 1594.333 2708.646 1594.333 2703.500 C 1594.333 2698.354 1593.925 2695.475 1593.160 2695.220 C 1592.515 2695.005 1592.236 2694.427 1592.540 2693.935 C 1593.437 2692.484 1590.867 2688.271 1586.298 2683.702 C 1582.690 2680.093 1581.247 2679.086 1580.607 2679.727 C 1580.273 2680.060 1580.000 2679.782 1580.000 2679.108 C 1580.000 2678.434 1579.550 2678.160 1579.000 2678.500 C 1578.450 2678.840 1578.000 2678.566 1578.000 2677.892 C 1578.000 2677.218 1577.704 2676.963 1577.342 2677.325 C 1576.980 2677.687 1576.011 2677.424 1575.188 2676.741 C 1574.303 2676.007 1570.757 2675.500 1566.500 2675.500 C 1562.243 2675.500 1558.697 2676.007 1557.812 2676.741 C 1556.989 2677.424 1556.020 2677.687 1555.658 2677.325 C 1555.296 2676.963 1555.000 2677.218 1555.000 2677.892 C 1555.000 2678.566 1554.550 2678.840 1554.000 2678.500 C 1553.450 2678.160 1553.000 2678.434 1553.000 2679.108 C 1553.000 2679.782 1552.727 2680.060 1552.393 2679.727 C 1551.753 2679.086 1550.310 2680.093 1546.702 2683.702 C 1542.133 2688.271 1539.563 2692.484 1540.460 2693.935 C 1540.764 2694.427 1540.485 2695.005 1539.840 2695.220 C 1539.075 2695.475 1538.667 2698.354 1538.667 2703.500 C 1538.667 2708.646 1539.075 2711.525 1539.840 2711.780 C 1540.485 2711.995 1540.764 2712.573 1540.460 2713.065 C 1539.563 2714.516 1542.133 2718.729 1546.702 2723.298 C 1550.310 2726.907 1551.753 2727.914 1552.393 2727.273 C 1552.727 2726.940 1553.000 2727.218 1553.000 2727.892 C 1553.000 2728.566 1553.450 2728.840 1554.000 2728.500 C 1554.550 2728.160 1555.000 2728.359 1555.000 2728.941 C 1555.000 2729.523 1555.338 2729.929 1555.750 2729.841 C 1556.162 2729.754 1557.175 2729.943 1558.000 2730.262 C 1558.825 2730.581 1560.175 2731.094 1561.000 2731.402 C 1563.324 2732.271 1573.919 2731.312 1575.379 2730.100 Z M 1015.632 2723.239 C 1057.125 2707.412 1045.877 2645.669 1001.500 2645.669 C 961.095 2645.669 946.386 2696.284 980.059 2719.447 C 982.900 2721.401 985.511 2723.020 985.862 2723.044 C 986.213 2723.068 988.750 2723.703 991.500 2724.454 C 998.068 2726.247 1009.218 2725.686 1015.632 2723.239 Z M 1559.030 2723.941 C 1536.573 2714.494 1542.340 2682.500 1566.500 2682.500 C 1588.300 2682.500 1596.202 2708.775 1578.206 2721.423 C 1573.531 2724.709 1563.870 2725.977 1559.030 2723.941 Z M 2139.340 2722.594 C 2144.414 2721.405 2154.531 2713.669 2153.402 2711.842 C 2153.116 2711.379 2153.290 2711.000 2153.789 2711.000 C 2155.768 2711.000 2158.364 2702.771 2158.364 2696.500 C 2158.364 2690.229 2155.768 2682.000 2153.789 2682.000 C 2153.290 2682.000 2153.116 2681.621 2153.402 2681.158 C 2154.526 2679.339 2144.446 2671.618 2139.340 2670.387 C 2132.487 2668.736 2122.892 2669.791 2118.160 2672.716 C 2114.058 2675.252 2109.018 2680.221 2109.598 2681.158 C 2109.884 2681.621 2109.710 2682.000 2109.211 2682.000 C 2107.232 2682.000 2104.636 2690.229 2104.636 2696.500 C 2104.636 2702.771 2107.232 2711.000 2109.211 2711.000 C 2109.710 2711.000 2109.884 2711.379 2109.598 2711.842 C 2108.448 2713.702 2118.802 2721.562 2123.533 2722.420 C 2125.025 2722.691 2126.526 2723.193 2126.869 2723.536 C 2127.545 2724.212 2134.762 2723.667 2139.340 2722.594 Z M 991.000 2717.171 C 960.063 2705.664 960.343 2664.161 991.428 2653.664 C 1012.426 2646.574 1035.000 2663.067 1035.000 2685.500 C 1035.000 2708.048 1011.653 2724.853 991.000 2717.171 Z M 2122.587 2714.968 C 2102.947 2705.167 2109.618 2676.000 2131.500 2676.000 C 2142.877 2676.000 2152.156 2685.209 2152.156 2696.500 C 2152.156 2711.459 2135.901 2721.611 2122.587 2714.968 Z M 420.340 2701.594 C 425.414 2700.405 435.531 2692.669 434.402 2690.842 C 434.116 2690.379 434.290 2690.000 434.789 2690.000 C 436.768 2690.000 439.364 2681.771 439.364 2675.500 C 439.364 2669.229 436.768 2661.000 434.789 2661.000 C 434.290 2661.000 434.116 2660.621 434.402 2660.158 C 435.526 2658.339 425.446 2650.618 420.340 2649.387 C 413.487 2647.736 403.892 2648.791 399.160 2651.716 C 395.058 2654.252 390.018 2659.221 390.598 2660.158 C 390.884 2660.621 390.710 2661.000 390.211 2661.000 C 388.232 2661.000 385.636 2669.229 385.636 2675.500 C 385.636 2681.771 388.232 2690.000 390.211 2690.000 C 390.710 2690.000 390.884 2690.379 390.598 2690.842 C 389.448 2692.702 399.802 2700.562 404.533 2701.420 C 406.025 2701.691 407.526 2702.193 407.869 2702.536 C 408.545 2703.212 415.762 2702.667 420.340 2701.594 Z M 403.587 2693.968 C 383.947 2684.167 390.618 2655.000 412.500 2655.000 C 423.877 2655.000 433.156 2664.209 433.156 2675.500 C 433.156 2690.459 416.901 2700.611 403.587 2693.968 Z M 1017.500 2484.954 C 1045.025 2477.726 1067.551 2459.080 1078.482 2434.472 C 1080.894 2429.041 1082.013 2425.571 1085.245 2413.500 C 1086.631 2408.321 1086.631 2384.679 1085.245 2379.500 C 1082.013 2367.429 1080.894 2363.959 1078.482 2358.528 C 1044.945 2283.032 930.239 2290.767 908.346 2370.000 C 907.510 2373.025 906.344 2377.300 905.755 2379.500 C 905.166 2381.700 904.684 2389.350 904.684 2396.500 C 904.684 2403.650 905.166 2411.300 905.755 2413.500 C 908.987 2425.571 910.106 2429.041 912.518 2434.472 C 929.947 2473.706 976.000 2495.851 1017.500 2484.954 Z M 441.674 2456.454 C 461.929 2444.545 479.512 2433.696 480.750 2432.345 C 483.653 2429.175 484.370 2340.400 481.525 2336.339 C 479.266 2333.113 403.876 2290.000 400.495 2290.000 C 397.182 2290.000 322.774 2331.816 319.250 2335.658 C 317.000 2338.112 317.000 2338.112 317.000 2384.000 C 317.000 2429.888 317.000 2429.888 319.250 2432.353 C 321.317 2434.616 393.517 2477.136 398.375 2478.951 C 401.457 2480.102 401.450 2480.106 441.674 2456.454 Z M 981.500 2477.918 C 914.958 2464.783 890.067 2385.904 937.507 2338.500 C 985.299 2290.743 1065.296 2316.749 1077.016 2383.852 C 1086.409 2437.637 1034.820 2488.443 981.500 2477.918 Z M 2172.956 2470.750 C 2175.515 2468.091 2213.951 2352.406 2213.981 2347.273 C 2214.005 2343.272 2217.287 2345.888 2157.174 2302.000 C 2116.981 2272.656 2109.410 2267.500 2106.510 2267.500 C 2103.620 2267.500 2095.832 2272.752 2055.352 2302.000 C 1995.024 2345.589 1997.995 2343.242 1998.019 2347.273 C 1998.049 2352.406 2036.485 2468.091 2039.044 2470.750 C 2042.464 2474.303 2169.536 2474.303 2172.956 2470.750 Z M 363.000 2448.591 C 326.500 2427.278 326.500 2427.278 326.500 2384.027 C 326.500 2340.776 326.500 2340.776 363.000 2319.924 C 383.075 2308.456 399.950 2299.077 400.500 2299.082 C 401.050 2299.086 417.700 2308.466 437.500 2319.926 C 473.500 2340.761 473.500 2340.761 473.500 2384.018 C 473.500 2427.275 473.500 2427.275 437.500 2448.594 C 417.700 2460.319 401.050 2469.910 400.500 2469.908 C 399.950 2469.906 383.075 2460.313 363.000 2448.591 Z M 1585.500 2467.046 C 1594.665 2464.710 1594.779 2464.667 1605.500 2459.517 C 1627.238 2449.076 1651.350 2422.759 1654.174 2406.392 C 1654.353 2405.351 1654.766 2404.275 1655.092 2404.000 C 1661.632 2398.477 1661.632 2344.523 1655.092 2339.000 C 1654.766 2338.725 1654.353 2337.649 1654.174 2336.608 C 1653.291 2331.491 1643.338 2314.666 1637.050 2307.659 C 1624.754 2293.960 1617.766 2289.078 1595.946 2278.949 C 1580.755 2271.897 1544.245 2271.897 1529.054 2278.949 C 1507.234 2289.078 1500.246 2293.960 1487.950 2307.659 C 1481.662 2314.666 1471.709 2331.491 1470.826 2336.608 C 1470.647 2337.649 1470.234 2338.725 1469.908 2339.000 C 1467.451 2341.075 1464.642 2358.412 1464.642 2371.500 C 1464.642 2384.588 1467.451 2401.925 1469.908 2404.000 C 1470.234 2404.275 1470.647 2405.351 1470.826 2406.392 C 1471.294 2409.101 1479.462 2424.596 1482.680 2428.879 C 1494.750 2444.944 1510.255 2456.621 1529.500 2464.141 C 1544.815 2470.126 1568.584 2471.359 1585.500 2467.046 Z M 2044.679 2463.258 C 2041.587 2458.028 2007.064 2348.513 2008.170 2347.438 C 2010.901 2344.781 2105.540 2276.691 2106.500 2276.693 C 2107.835 2276.695 2204.129 2347.151 2204.599 2348.470 C 2204.801 2349.036 2196.514 2375.150 2186.185 2406.500 C 2167.403 2463.500 2167.403 2463.500 2106.265 2463.758 C 2072.639 2463.899 2044.926 2463.674 2044.679 2463.258 Z M 1548.000 2459.867 C 1485.689 2449.684 1454.249 2381.659 1485.898 2325.500 C 1521.162 2262.926 1617.842 2270.207 1645.239 2337.500 C 1671.533 2402.084 1616.695 2471.094 1548.000 2459.867 Z M 422.359 2425.768 C 433.966 2419.041 444.259 2412.741 445.232 2411.768 C 447.929 2409.071 447.929 2359.929 445.232 2357.232 C 443.402 2355.402 401.817 2331.000 400.528 2331.000 C 399.194 2331.000 356.556 2355.444 354.765 2357.235 C 352.503 2359.497 352.038 2408.342 354.250 2411.276 C 355.486 2412.915 398.683 2437.914 400.377 2437.971 C 400.860 2437.987 410.752 2432.496 422.359 2425.768 Z M 380.250 2419.057 C 360.000 2407.585 360.000 2407.585 360.000 2384.503 C 360.000 2361.421 360.000 2361.421 380.250 2349.946 C 400.500 2338.470 400.500 2338.470 420.250 2349.942 C 440.000 2361.414 440.000 2361.414 440.000 2384.497 C 440.000 2407.580 440.000 2407.580 420.250 2419.055 C 400.500 2430.530 400.500 2430.530 380.250 2419.057 Z M 1008.300 2426.098 C 1039.978 2411.622 1030.189 2364.546 995.500 2364.546 C 966.070 2364.546 952.160 2400.650 973.991 2420.373 C 983.453 2428.922 997.128 2431.203 1008.300 2426.098 Z M 986.437 2420.400 C 964.707 2412.688 964.988 2379.984 986.848 2372.536 C 996.026 2369.409 1005.724 2371.378 1012.707 2377.786 C 1033.152 2396.547 1012.701 2429.722 986.437 2420.400 Z M 2114.000 2409.845 C 2121.309 2407.871 2128.169 2402.386 2132.838 2394.785 C 2141.169 2381.222 2134.883 2360.984 2120.108 2353.800 C 2096.587 2342.364 2071.712 2362.394 2077.281 2388.285 C 2079.138 2396.916 2090.737 2408.407 2098.842 2409.645 C 2099.580 2409.758 2100.476 2410.143 2100.835 2410.502 C 2101.468 2411.135 2110.983 2410.660 2114.000 2409.845 Z M 1577.479 2402.085 C 1602.926 2389.558 1602.772 2353.367 1577.218 2340.787 C 1554.637 2329.670 1528.684 2346.094 1528.684 2371.500 C 1528.684 2397.076 1554.624 2413.336 1577.479 2402.085 Z M 2098.750 2402.961 C 2097.787 2402.378 2097.000 2402.166 2097.000 2402.490 C 2097.000 2402.814 2096.438 2402.618 2095.750 2402.055 C 2095.062 2401.491 2093.015 2399.840 2091.201 2398.385 C 2078.477 2388.182 2080.506 2369.867 2095.539 2359.235 C 2097.528 2357.828 2099.542 2357.512 2106.500 2357.512 C 2115.492 2357.512 2115.393 2357.479 2121.799 2362.615 C 2134.523 2372.818 2132.494 2391.133 2117.461 2401.765 C 2114.651 2403.752 2101.449 2404.596 2098.750 2402.961 Z M 1554.994 2398.126 C 1524.373 2388.080 1530.473 2344.535 1562.500 2344.535 C 1598.008 2344.535 1599.459 2396.856 1564.000 2398.624 C 1560.425 2398.802 1556.372 2398.578 1554.994 2398.126 Z M 890.938 2193.540 C 900.313 2190.193 910.292 2179.980 953.486 2129.525 C 960.066 2121.839 969.286 2111.237 973.975 2105.965 C 983.727 2095.000 1003.433 2072.516 1019.500 2054.022 C 1025.550 2047.058 1043.763 2026.317 1059.973 2007.930 C 1095.247 1967.919 1132.768 1925.046 1154.000 1900.491 C 1188.526 1860.561 1183.449 1861.409 1219.172 1889.605 C 1231.641 1899.447 1252.116 1915.598 1264.672 1925.496 C 1277.227 1935.394 1318.100 1968.001 1355.500 1997.955 C 1426.830 2055.084 1427.691 2055.770 1475.442 2093.517 C 1518.569 2127.609 1520.921 2129.000 1535.438 2129.000 C 1559.839 2129.000 1561.215 2127.060 1603.507 2033.000 C 1610.803 2016.775 1626.998 1981.000 1639.497 1953.500 C 1651.995 1926.000 1666.393 1894.275 1671.492 1883.000 C 1676.590 1871.725 1684.688 1853.950 1689.487 1843.500 C 1694.286 1833.050 1702.617 1814.825 1708.000 1803.000 C 1716.896 1783.457 1725.271 1765.219 1741.519 1730.000 C 1744.691 1723.125 1754.816 1701.300 1764.020 1681.500 C 1773.223 1661.700 1782.222 1642.125 1784.017 1638.000 C 1785.811 1633.875 1793.680 1616.775 1801.504 1600.000 C 1809.327 1583.225 1819.342 1561.625 1823.760 1552.000 C 1828.178 1542.375 1834.808 1528.200 1838.494 1520.500 C 1842.179 1512.800 1849.827 1496.375 1855.491 1484.000 C 1861.154 1471.625 1868.133 1456.550 1870.999 1450.500 C 1876.163 1439.601 1911.061 1364.319 1928.134 1327.250 C 1933.010 1316.662 1941.108 1299.112 1946.128 1288.250 C 1951.148 1277.388 1958.744 1260.850 1963.007 1251.500 C 1967.271 1242.150 1975.588 1224.150 1981.489 1211.500 C 1987.391 1198.850 1995.257 1181.750 1998.970 1173.500 C 2002.683 1165.250 2010.344 1148.600 2015.994 1136.500 C 2021.645 1124.400 2031.783 1102.575 2038.523 1088.000 C 2077.237 1004.288 2089.645 977.574 2097.760 960.462 C 2102.726 949.990 2110.172 934.015 2114.306 924.962 C 2118.440 915.908 2126.180 899.275 2131.506 888.000 C 2143.272 863.095 2158.771 829.895 2170.255 805.000 C 2193.348 754.936 2214.710 708.388 2223.489 689.000 C 2228.844 677.175 2236.956 659.400 2241.517 649.500 C 2246.077 639.600 2253.397 623.400 2257.784 613.500 C 2262.171 603.600 2269.026 588.525 2273.017 580.000 C 2282.552 559.634 2314.252 490.196 2328.715 458.000 C 2350.998 408.391 2352.147 395.667 2335.894 378.481 C 2323.400 365.271 2306.950 362.236 2281.500 368.445 C 2266.949 371.994 2200.148 394.760 2095.000 432.003 C 2077.675 438.140 2057.875 445.107 2051.000 447.486 C 2044.125 449.864 2030.625 454.596 2021.000 458.000 C 2011.375 461.403 1993.375 467.699 1981.000 471.990 C 1968.625 476.281 1944.325 484.831 1927.000 490.991 C 1909.675 497.150 1877.500 508.483 1855.500 516.175 C 1833.500 523.866 1801.550 535.039 1784.500 541.003 C 1727.277 561.021 1640.668 591.127 1622.000 597.491 C 1611.825 600.959 1588.650 609.067 1570.500 615.509 C 1552.350 621.951 1518.150 633.884 1494.500 642.026 C 1470.850 650.169 1444.300 659.383 1435.500 662.502 C 1426.700 665.621 1402.175 674.181 1381.000 681.523 C 1359.825 688.866 1324.275 701.234 1302.000 709.007 C 1279.725 716.780 1249.350 727.338 1234.500 732.469 C 1219.650 737.601 1200.300 744.352 1191.500 747.471 C 1182.700 750.590 1156.150 759.888 1132.500 768.133 C 1108.850 776.378 1084.550 784.952 1078.500 787.187 C 1072.450 789.422 1060.525 793.625 1052.000 796.527 C 1043.475 799.429 1008.150 811.794 973.500 824.003 C 938.850 836.213 904.200 848.359 896.500 850.994 C 888.800 853.628 867.875 860.976 850.000 867.322 C 753.641 901.532 707.355 917.914 688.500 924.484 C 676.950 928.509 659.850 934.586 650.500 937.990 C 641.150 941.394 625.400 947.015 615.500 950.481 C 589.779 959.487 512.797 986.665 504.500 989.669 C 495.278 993.007 465.697 1003.572 428.000 1016.990 C 411.225 1022.960 385.350 1032.191 370.500 1037.503 C 355.650 1042.814 334.725 1050.233 324.000 1053.988 C 239.857 1083.453 229.267 1087.954 217.250 1099.368 C 198.736 1116.953 197.261 1143.156 213.815 1160.373 C 221.302 1168.160 233.871 1177.068 296.526 1218.999 C 427.249 1306.481 549.507 1388.763 604.774 1426.456 C 621.673 1437.982 646.525 1454.888 660.000 1464.025 C 673.475 1473.162 689.225 1483.900 695.000 1487.886 C 700.775 1491.872 721.250 1505.960 740.500 1519.191 C 759.750 1532.423 777.001 1544.656 778.835 1546.375 C 785.459 1552.581 785.411 1552.340 789.946 1602.000 C 791.629 1620.425 794.125 1647.425 795.493 1662.000 C 796.861 1676.575 798.895 1699.075 800.012 1712.000 C 801.129 1724.925 802.706 1742.475 803.515 1751.000 C 804.325 1759.525 805.458 1772.350 806.034 1779.500 C 806.609 1786.650 807.746 1798.575 808.559 1806.000 C 810.250 1821.435 813.575 1856.035 814.999 1873.000 C 815.529 1879.325 817.114 1896.200 818.521 1910.500 C 819.928 1924.800 822.186 1948.650 823.539 1963.500 C 824.891 1978.350 826.663 1997.025 827.476 2005.000 C 828.288 2012.975 829.652 2027.600 830.507 2037.500 C 831.361 2047.400 832.927 2064.050 833.986 2074.500 C 835.044 2084.950 836.847 2104.300 837.991 2117.500 C 840.757 2149.423 841.907 2160.406 843.176 2167.000 C 847.371 2188.808 869.598 2201.159 890.938 2193.540 Z M 894.622 2099.750 C 892.274 2096.039 891.253 2089.000 887.532 2050.905 C 885.577 2030.882 883.312 2008.200 882.500 2000.500 C 881.688 1992.800 879.658 1971.425 877.989 1953.000 C 876.320 1934.575 874.095 1910.950 873.045 1900.500 C 871.995 1890.050 870.858 1877.900 870.518 1873.500 C 869.294 1857.643 867.894 1842.070 865.529 1818.000 C 864.205 1804.525 862.193 1783.600 861.058 1771.500 C 857.208 1730.459 851.941 1675.579 849.968 1655.936 C 845.816 1614.600 846.197 1607.827 852.709 1607.191 C 858.674 1606.610 864.297 1610.689 944.000 1673.421 C 969.556 1693.535 1003.076 1719.869 1034.500 1744.520 C 1045.500 1753.149 1063.028 1766.800 1073.452 1774.855 C 1130.244 1818.742 1137.000 1824.699 1137.000 1830.881 C 1137.000 1837.521 1133.144 1842.280 1068.500 1915.431 C 1048.700 1937.836 1026.650 1962.828 1019.500 1970.968 C 1012.350 1979.109 1001.595 1991.333 995.599 1998.134 C 970.150 2027.003 949.777 2050.248 940.500 2061.000 C 907.087 2099.728 898.955 2106.597 894.622 2099.750 Z M 1522.942 2056.997 C 1516.448 2055.165 1512.416 2052.075 1413.526 1973.162 C 1340.601 1914.969 1298.297 1881.418 1251.000 1844.263 C 1190.485 1796.725 1169.597 1780.347 1140.500 1757.618 C 1122.900 1743.870 1101.525 1727.164 1093.000 1720.494 C 1084.475 1713.824 1066.025 1699.417 1052.000 1688.477 C 1037.975 1677.537 1010.075 1655.716 990.000 1639.986 C 942.840 1603.032 918.229 1583.887 895.155 1566.205 C 854.240 1534.852 854.594 1537.183 887.000 1512.451 C 895.525 1505.945 908.575 1495.891 916.000 1490.109 C 923.425 1484.328 951.100 1463.128 977.500 1442.998 C 1003.900 1422.869 1029.100 1403.618 1033.500 1400.218 C 1037.900 1396.818 1048.700 1388.548 1057.500 1381.839 C 1083.672 1361.887 1130.564 1325.983 1190.000 1280.386 C 1210.075 1264.986 1237.075 1244.330 1250.000 1234.484 C 1323.755 1178.302 1392.997 1125.330 1424.581 1100.926 C 1442.621 1086.987 1458.674 1074.741 1556.500 1000.295 C 1572.450 988.157 1590.000 974.783 1595.500 970.575 C 1601.000 966.367 1613.375 956.957 1623.000 949.664 C 1632.625 942.371 1649.050 929.877 1659.500 921.901 C 1708.611 884.416 1744.565 857.021 1767.000 839.993 C 1780.475 829.765 1800.275 814.701 1811.000 806.516 C 1847.714 778.499 1896.230 741.929 1926.000 719.833 C 1934.525 713.506 1954.146 698.917 1969.602 687.414 C 1996.241 667.589 2014.785 654.028 2057.760 622.946 C 2068.067 615.491 2086.625 601.959 2099.000 592.875 C 2111.375 583.791 2127.125 572.229 2134.000 567.182 C 2260.342 474.434 2258.812 475.093 2238.006 522.444 C 2222.627 557.444 2179.082 653.582 2158.488 698.000 C 2146.265 724.363 2135.012 748.758 2110.513 802.000 C 2104.313 815.475 2095.317 834.825 2090.523 845.000 C 2080.827 865.578 2054.375 922.515 2041.278 951.000 C 2036.599 961.175 2028.379 978.950 2023.010 990.500 C 2017.642 1002.050 2007.084 1024.775 1999.549 1041.000 C 1992.014 1057.225 1981.771 1079.275 1976.787 1090.000 C 1971.803 1100.725 1963.798 1118.050 1958.998 1128.500 C 1946.708 1155.259 1927.146 1197.426 1910.984 1232.000 C 1903.399 1248.225 1892.251 1272.300 1886.210 1285.500 C 1871.998 1316.555 1847.280 1370.114 1837.752 1390.500 C 1833.639 1399.300 1822.050 1424.275 1811.998 1446.000 C 1780.032 1515.087 1773.579 1529.069 1745.538 1590.000 C 1739.083 1604.025 1728.709 1626.300 1722.484 1639.500 C 1716.259 1652.700 1705.444 1675.875 1698.449 1691.000 C 1691.455 1706.125 1679.889 1731.100 1672.747 1746.500 C 1652.306 1790.575 1612.687 1877.432 1602.501 1900.500 C 1597.401 1912.050 1587.723 1933.650 1580.995 1948.500 C 1574.267 1963.350 1561.637 1991.433 1552.929 2010.906 C 1532.526 2056.529 1530.782 2059.210 1522.942 2056.997 Z M 801.686 1493.570 C 795.978 1490.132 788.732 1485.212 751.500 1459.487 C 740.500 1451.887 721.150 1438.639 708.500 1430.046 C 695.850 1421.453 680.325 1410.795 674.000 1406.362 C 667.675 1401.928 642.025 1384.424 617.000 1367.465 C 576.792 1340.216 546.413 1319.722 457.000 1259.531 C 414.699 1231.054 362.188 1195.816 324.000 1170.281 C 264.275 1130.345 263.590 1134.717 333.500 1109.690 C 396.001 1087.315 472.906 1059.925 495.500 1051.993 C 509.250 1047.165 534.000 1038.398 550.500 1032.509 C 567.000 1026.621 584.775 1020.327 590.000 1018.524 C 600.135 1015.026 666.143 991.500 720.500 972.014 C 738.650 965.507 762.050 957.209 772.500 953.574 C 782.950 949.938 798.925 944.296 808.000 941.035 C 817.075 937.774 843.400 928.545 866.500 920.526 C 889.600 912.507 915.250 903.495 923.500 900.499 C 931.750 897.503 947.500 891.935 958.500 888.126 C 969.500 884.316 989.975 877.140 1004.000 872.178 C 1062.886 851.345 1083.039 844.248 1111.000 834.497 C 1127.225 828.838 1161.425 816.784 1187.000 807.710 C 1212.575 798.636 1241.375 788.493 1251.000 785.171 C 1260.625 781.849 1276.375 776.356 1286.000 772.965 C 1295.625 769.574 1322.625 760.140 1346.000 752.001 C 1369.375 743.861 1399.525 733.285 1413.000 728.497 C 1426.475 723.709 1456.850 713.119 1480.500 704.964 C 1504.150 696.808 1543.075 683.307 1567.000 674.961 C 1590.925 666.615 1618.150 657.172 1627.500 653.975 C 1636.850 650.779 1656.875 643.825 1672.000 638.523 C 1687.125 633.221 1711.650 624.682 1726.500 619.548 C 1755.893 609.384 1801.615 593.402 1842.500 579.000 C 1856.800 573.963 1895.500 560.393 1928.500 548.844 C 2024.911 515.106 2029.166 513.614 2058.000 503.461 C 2178.604 460.992 2185.309 461.278 2125.000 506.325 C 2106.034 520.491 2087.520 534.084 2014.573 587.398 C 2004.714 594.604 1989.575 605.675 1980.931 612.000 C 1972.288 618.325 1957.855 628.877 1948.858 635.450 C 1928.402 650.394 1830.082 724.082 1796.000 750.013 C 1781.975 760.684 1765.100 773.515 1758.500 778.527 C 1751.900 783.538 1732.775 798.083 1716.000 810.848 C 1699.225 823.614 1677.922 839.782 1668.661 846.779 C 1651.042 860.089 1634.298 872.827 1602.500 897.109 C 1580.016 914.279 1506.468 970.170 1483.000 987.921 C 1473.925 994.786 1450.750 1012.479 1431.500 1027.240 C 1395.224 1055.058 1382.722 1064.617 1320.500 1112.113 C 1300.150 1127.647 1275.850 1146.281 1266.500 1153.521 C 1257.150 1160.762 1237.350 1175.898 1222.500 1187.157 C 1187.165 1213.947 1154.265 1239.106 1124.000 1262.482 C 1097.902 1282.639 1075.074 1300.055 1028.574 1335.282 C 1012.665 1347.335 996.690 1359.554 993.074 1362.437 C 984.327 1369.410 965.990 1383.443 928.500 1411.854 C 911.450 1424.775 881.525 1447.743 862.000 1462.894 C 813.278 1500.702 813.414 1500.632 801.686 1493.570 Z M 1019.500 329.967 C 1021.700 329.403 1024.323 328.749 1025.329 328.513 C 1031.534 327.058 1043.994 321.485 1045.235 319.610 C 1045.639 319.000 1045.976 318.866 1045.985 319.314 C 1045.993 319.761 1048.738 318.207 1052.084 315.860 C 1058.769 311.171 1074.321 295.328 1073.517 294.027 C 1073.239 293.577 1073.621 292.976 1074.366 292.690 C 1076.538 291.856 1084.776 274.543 1086.645 266.884 C 1090.522 250.996 1090.513 236.958 1086.615 220.116 C 1084.909 212.745 1076.558 195.151 1074.366 194.310 C 1073.621 194.024 1073.239 193.423 1073.517 192.973 C 1074.321 191.672 1058.769 175.829 1052.084 171.140 C 1048.738 168.793 1045.993 167.239 1045.985 167.686 C 1045.976 168.134 1045.639 168.000 1045.235 167.390 C 1043.995 165.515 1031.541 159.945 1025.329 158.486 C 1024.323 158.250 1021.475 157.523 1019.000 156.870 C 1013.180 155.336 989.820 155.336 984.000 156.870 C 981.525 157.523 978.677 158.250 977.671 158.486 C 971.459 159.945 959.005 165.515 957.765 167.390 C 957.361 168.000 957.024 168.134 957.015 167.686 C 957.007 167.239 954.262 168.793 950.916 171.140 C 944.231 175.829 928.679 191.672 929.483 192.973 C 929.761 193.423 929.379 194.024 928.634 194.310 C 926.462 195.144 918.224 212.457 916.355 220.116 C 912.478 236.004 912.487 250.042 916.385 266.884 C 918.091 274.255 926.442 291.849 928.634 292.690 C 929.379 292.976 929.761 293.577 929.483 294.027 C 928.679 295.328 944.231 311.171 950.916 315.860 C 954.262 318.207 957.007 319.761 957.015 319.314 C 957.024 318.866 957.361 319.000 957.765 319.610 C 958.895 321.318 975.566 328.814 978.519 328.943 C 978.789 328.955 980.135 329.247 981.511 329.592 C 991.201 332.024 1010.713 332.216 1019.500 329.967 Z M 1603.750 288.759 C 1638.518 253.933 1644.000 248.041 1644.000 245.497 C 1644.000 240.486 1563.547 160.600 1558.500 160.600 C 1553.453 160.600 1473.000 240.486 1473.000 245.497 C 1473.000 248.589 1550.148 327.439 1556.000 330.328 C 1560.076 332.340 1561.347 331.233 1603.750 288.759 Z M 991.000 322.417 C 946.117 314.373 916.908 276.708 922.654 234.283 C 935.256 141.253 1067.586 141.183 1080.321 234.199 C 1087.156 284.122 1039.569 331.120 991.000 322.417 Z M 1520.745 283.245 C 1483.000 245.490 1483.000 245.490 1520.755 207.745 C 1558.510 170.000 1558.510 170.000 1596.255 207.755 C 1634.000 245.510 1634.000 245.510 1596.245 283.255 C 1558.490 321.000 1558.490 321.000 1520.745 283.245 Z M 426.000 317.551 C 435.733 315.808 437.357 315.403 442.884 313.339 C 449.165 310.993 460.250 305.108 461.610 303.397 C 462.221 302.628 463.072 302.000 463.502 302.000 C 465.167 302.000 475.378 292.424 480.435 286.119 C 487.881 276.835 498.133 256.466 496.287 254.620 C 495.972 254.306 496.182 253.475 496.752 252.774 C 500.239 248.491 500.239 214.509 496.752 210.226 C 496.182 209.525 495.972 208.694 496.287 208.380 C 498.133 206.534 487.881 186.165 480.435 176.881 C 475.378 170.576 465.167 161.000 463.502 161.000 C 463.072 161.000 462.221 160.372 461.610 159.603 C 459.451 156.887 443.026 149.074 435.884 147.367 C 419.105 143.355 405.895 143.355 389.116 147.367 C 381.974 149.074 365.549 156.887 363.390 159.603 C 362.779 160.372 361.928 161.000 361.498 161.000 C 359.833 161.000 349.622 170.576 344.565 176.881 C 337.119 186.165 326.867 206.534 328.713 208.380 C 329.028 208.694 328.818 209.525 328.248 210.226 C 324.761 214.509 324.761 248.491 328.248 252.774 C 328.818 253.475 329.028 254.306 328.713 254.620 C 326.867 256.466 337.119 276.835 344.565 286.119 C 349.622 292.424 359.833 302.000 361.498 302.000 C 361.928 302.000 362.779 302.628 363.390 303.397 C 365.543 306.105 381.891 313.887 389.116 315.642 C 402.969 319.008 414.524 319.606 426.000 317.551 Z M 397.500 308.591 C 346.456 298.627 319.085 242.379 342.713 196.000 C 371.698 139.104 453.201 139.104 482.305 196.000 C 511.827 253.714 461.137 321.013 397.500 308.591 Z M 2139.000 302.135 C 2194.509 287.834 2214.210 218.044 2174.564 176.148 C 2127.432 126.341 2043.700 159.837 2043.700 228.500 C 2043.700 278.783 2090.195 314.708 2139.000 302.135 Z M 2105.500 294.590 C 2052.990 282.486 2034.149 218.702 2071.925 180.925 C 2111.918 140.932 2179.614 164.901 2186.706 221.565 C 2192.189 265.383 2148.649 304.537 2105.500 294.590 Z M 1014.310 272.092 C 1034.318 262.406 1038.857 237.120 1023.368 221.632 C 1003.505 201.769 970.583 215.408 970.583 243.500 C 970.583 266.238 994.329 281.764 1014.310 272.092 Z M 1564.652 267.669 C 1586.613 262.395 1586.613 228.747 1564.652 223.315 C 1542.103 217.738 1526.567 243.071 1541.589 260.924 C 1544.014 263.805 1552.000 268.827 1552.000 267.471 C 1552.000 267.157 1552.753 267.322 1553.674 267.838 C 1555.323 268.760 1560.436 268.682 1564.652 267.669 Z M 993.000 266.693 C 988.092 265.146 979.721 256.478 978.216 251.384 C 970.819 226.349 1000.236 208.168 1018.534 226.466 C 1036.999 244.932 1018.154 274.621 993.000 266.693 Z M 425.500 258.737 C 454.056 244.125 444.377 201.539 412.500 201.539 C 395.328 201.539 382.654 214.262 382.654 231.500 C 382.654 253.868 406.006 268.713 425.500 258.737 Z M 1551.500 260.588 C 1544.258 257.370 1540.296 248.754 1542.557 241.143 C 1547.391 224.876 1569.609 224.876 1574.443 241.143 C 1578.383 254.403 1564.348 266.299 1551.500 260.588 Z M 2131.264 253.004 C 2156.968 239.756 2148.229 201.500 2119.500 201.500 C 2091.711 201.500 2082.225 237.481 2106.120 252.255 C 2112.959 256.484 2123.881 256.810 2131.264 253.004 Z M 403.000 252.916 C 379.913 242.449 387.197 208.044 412.500 208.044 C 425.542 208.044 436.000 218.482 436.000 231.500 C 436.000 244.518 425.542 254.956 412.500 254.956 C 409.604 254.956 405.606 254.097 403.000 252.916 Z M 2110.587 246.968 C 2091.010 237.199 2097.688 208.000 2119.500 208.000 C 2130.994 208.000 2140.000 217.006 2140.000 228.500 C 2140.000 243.609 2123.995 253.658 2110.587 246.968 Z"/></svg>
